<?xml version="1.0" encoding="utf-8"?>
<!-- Generator: Adobe Illustrator 16.0.0, SVG Export Plug-In . SVG Version: 6.00 Build 0)  -->
<!DOCTYPE svg PUBLIC "-//W3C//DTD SVG 1.1//EN" "http://www.w3.org/Graphics/SVG/1.1/DTD/svg11.dtd">
<svg version="1.1" id="Name_1_" xmlns="http://www.w3.org/2000/svg" xmlns:xlink="http://www.w3.org/1999/xlink" x="0px" y="0px"
	 width="207px" height="55px" viewBox="0 0 207 55" enable-background="new 0 0 207 55" xml:space="preserve">
<g id="Logo_2_">
	<g id="Rectangle_44" opacity="0.4">
		<g>
			<polygon points="52,35.999 1,52.998 30,52.998 52,41.884 74,52.998 103,52.998 			"/>
		</g>
	</g>
	<g id="Shape_31">
		<g>
			<polygon fill-rule="evenodd" clip-rule="evenodd" fill="#EC1C2A" points="52,0.998 31,22.41 31,13 22,13 22,31.586 1,52.998 
				30,52.998 52,18.998 74,52.998 103,52.998 			"/>
		</g>
	</g>
	<g id="Rectangle_44_copy" opacity="0.102">
		<g>
			<polygon points="52,35.999 1,52.998 30,52.998 52,41.884 74,52.998 103,52.998 			"/>
		</g>
	</g>
</g>
<g>
	<path fill="#004274" d="M119.069,49.5h12.445V53h-16.926V18h4.48V49.5z"/>
	<path fill="#004274" d="M144.21,17.5c1.692,0,3.193,0.284,4.505,0.85c1.311,0.567,2.431,1.534,3.36,2.9
		c0.929,1.367,1.634,3.208,2.115,5.525c0.48,2.317,0.722,5.225,0.722,8.725s-0.241,6.408-0.722,8.725
		c-0.481,2.317-1.187,4.159-2.115,5.525c-0.93,1.367-2.05,2.334-3.36,2.9c-1.312,0.566-2.813,0.85-4.505,0.85
		c-1.693,0-3.195-0.283-4.506-0.85c-1.312-0.566-2.432-1.533-3.36-2.9c-0.929-1.366-1.635-3.208-2.115-5.525
		c-0.481-2.316-0.722-5.225-0.722-8.725s0.24-6.408,0.722-8.725c0.48-2.316,1.187-4.158,2.115-5.525
		c0.929-1.366,2.049-2.333,3.36-2.9C141.015,17.784,142.517,17.5,144.21,17.5z M144.21,50.5c0.796,0,1.575-0.217,2.339-0.65
		c0.764-0.433,1.427-1.216,1.991-2.35c0.564-1.133,1.021-2.666,1.369-4.6s0.523-4.4,0.523-7.4s-0.175-5.467-0.523-7.4
		c-0.349-1.933-0.805-3.466-1.369-4.6c-0.564-1.133-1.228-1.917-1.991-2.35c-0.764-0.433-1.543-0.65-2.339-0.65
		c-0.797,0-1.577,0.217-2.34,0.65c-0.764,0.434-1.428,1.217-1.991,2.35c-0.565,1.134-1.021,2.667-1.369,4.6
		c-0.349,1.934-0.522,4.4-0.522,7.4s0.174,5.467,0.522,7.4s0.804,3.467,1.369,4.6c0.563,1.134,1.228,1.917,1.991,2.35
		C142.633,50.283,143.413,50.5,144.21,50.5z"/>
	<path fill="#004274" d="M179.305,52.5c-0.764,0.268-1.825,0.5-3.186,0.7c-1.361,0.2-2.788,0.3-4.281,0.3
		c-1.991,0-3.733-0.283-5.227-0.85c-1.494-0.566-2.738-1.533-3.734-2.9c-0.995-1.366-1.742-3.208-2.24-5.525
		c-0.497-2.316-0.746-5.225-0.746-8.725s0.24-6.408,0.722-8.725c0.48-2.316,1.194-4.158,2.141-5.525
		c0.945-1.366,2.091-2.333,3.435-2.9c1.345-0.566,2.896-0.85,4.654-0.85c1.494,0,2.92,0.1,4.281,0.3c1.36,0.2,2.423,0.434,3.187,0.7
		v2.25h-6.472c-1.129,0-2.149,0.217-3.062,0.65c-0.913,0.434-1.692,1.208-2.34,2.325c-0.647,1.117-1.153,2.625-1.519,4.525
		c-0.365,1.9-0.547,4.317-0.547,7.25c0,2.934,0.182,5.35,0.547,7.25s0.904,3.408,1.618,4.525c0.713,1.117,1.601,1.892,2.663,2.324
		c1.062,0.434,2.273,0.65,3.634,0.65h1.992V34h4.479V52.5z"/>
	<path fill="#004274" d="M195.484,17.5c1.692,0,3.193,0.284,4.505,0.85c1.311,0.567,2.431,1.534,3.36,2.9
		c0.929,1.367,1.634,3.208,2.115,5.525c0.48,2.317,0.722,5.225,0.722,8.725s-0.241,6.408-0.722,8.725
		c-0.481,2.317-1.187,4.159-2.115,5.525c-0.93,1.367-2.05,2.334-3.36,2.9c-1.312,0.566-2.813,0.85-4.505,0.85
		c-1.693,0-3.195-0.283-4.506-0.85c-1.312-0.566-2.432-1.533-3.36-2.9c-0.929-1.366-1.635-3.208-2.115-5.525
		c-0.481-2.316-0.722-5.225-0.722-8.725s0.24-6.408,0.722-8.725c0.48-2.316,1.187-4.158,2.115-5.525
		c0.929-1.366,2.049-2.333,3.36-2.9C192.289,17.784,193.791,17.5,195.484,17.5z M195.484,50.5c0.796,0,1.575-0.217,2.339-0.65
		c0.764-0.433,1.427-1.216,1.991-2.35c0.564-1.133,1.021-2.666,1.369-4.6s0.523-4.4,0.523-7.4s-0.175-5.467-0.523-7.4
		c-0.349-1.933-0.805-3.466-1.369-4.6c-0.564-1.133-1.228-1.917-1.991-2.35c-0.764-0.433-1.543-0.65-2.339-0.65
		c-0.797,0-1.577,0.217-2.34,0.65c-0.764,0.434-1.428,1.217-1.991,2.35c-0.565,1.134-1.021,2.667-1.369,4.6
		c-0.349,1.934-0.522,4.4-0.522,7.4s0.174,5.467,0.522,7.4s0.804,3.467,1.369,4.6c0.563,1.134,1.228,1.917,1.991,2.35
		C193.907,50.283,194.688,50.5,195.484,50.5z"/>
</g>
<g>
	<path fill="#004274" d="M86.897,12.059V4.185h2.707c0.611,0,1.077,0.038,1.399,0.113c0.45,0.104,0.834,0.292,1.152,0.564
		c0.415,0.351,0.724,0.799,0.93,1.345c0.206,0.546,0.308,1.17,0.308,1.872c0,0.598-0.069,1.128-0.209,1.59
		c-0.139,0.462-0.318,0.844-0.536,1.146c-0.218,0.303-0.457,0.541-0.716,0.714c-0.259,0.174-0.572,0.306-0.938,0.395
		s-0.787,0.134-1.262,0.134H86.897z M87.938,11.129h1.678c0.518,0,0.924-0.048,1.219-0.145s0.53-0.233,0.705-0.408
		c0.247-0.247,0.439-0.579,0.576-0.997c0.138-0.417,0.207-0.923,0.207-1.517c0-0.824-0.135-1.457-0.405-1.899
		c-0.27-0.442-0.598-0.738-0.983-0.889c-0.279-0.107-0.727-0.161-1.345-0.161h-1.651V11.129z"/>
	<path fill="#004274" d="M95.232,12.059V4.185h5.682v0.929h-4.642v2.412h4.347v0.924h-4.347v2.68h4.824v0.929H95.232z"/>
	<path fill="#004274" d="M102.564,9.529l0.981-0.086c0.046,0.394,0.154,0.717,0.324,0.969c0.169,0.252,0.433,0.457,0.791,0.612
		s0.758,0.234,1.205,0.234c0.396,0,0.748-0.059,1.051-0.177c0.305-0.118,0.529-0.28,0.678-0.486c0.148-0.206,0.223-0.43,0.223-0.674
		c0-0.247-0.072-0.463-0.215-0.647c-0.143-0.184-0.379-0.339-0.707-0.464c-0.211-0.083-0.678-0.21-1.398-0.384
		c-0.723-0.173-1.229-0.337-1.517-0.491c-0.375-0.197-0.655-0.441-0.839-0.733c-0.184-0.292-0.276-0.618-0.276-0.98
		c0-0.397,0.112-0.769,0.337-1.115c0.225-0.345,0.554-0.607,0.985-0.787c0.434-0.179,0.914-0.269,1.441-0.269
		c0.584,0,1.098,0.094,1.541,0.282c0.445,0.188,0.787,0.465,1.027,0.83c0.238,0.365,0.367,0.779,0.387,1.241l-0.998,0.075
		c-0.053-0.498-0.234-0.874-0.543-1.128c-0.311-0.254-0.766-0.381-1.371-0.381c-0.629,0-1.086,0.115-1.375,0.346
		c-0.287,0.231-0.43,0.51-0.43,0.835c0,0.283,0.102,0.516,0.305,0.698c0.199,0.183,0.723,0.37,1.568,0.561
		c0.844,0.192,1.424,0.359,1.738,0.502c0.457,0.211,0.795,0.479,1.014,0.803c0.217,0.324,0.326,0.698,0.326,1.12
		c0,0.419-0.119,0.813-0.359,1.184c-0.238,0.371-0.582,0.659-1.031,0.865c-0.447,0.206-0.953,0.309-1.514,0.309
		c-0.711,0-1.307-0.104-1.787-0.312c-0.481-0.208-0.858-0.52-1.131-0.938C102.723,10.527,102.579,10.055,102.564,9.529z"/>
	<path fill="#004274" d="M116.232,9.298l1.039,0.263c-0.217,0.856-0.609,1.508-1.176,1.958c-0.566,0.45-1.26,0.674-2.078,0.674
		c-0.846,0-1.535-0.173-2.064-0.519c-0.531-0.345-0.936-0.846-1.213-1.501c-0.275-0.655-0.414-1.359-0.414-2.111
		c0-0.82,0.156-1.535,0.469-2.146c0.313-0.61,0.758-1.074,1.334-1.391c0.578-0.317,1.213-0.475,1.906-0.475
		c0.785,0,1.447,0.201,1.982,0.602s0.91,0.965,1.121,1.692l-1.025,0.242c-0.182-0.573-0.445-0.99-0.793-1.251
		c-0.346-0.261-0.781-0.392-1.307-0.392c-0.604,0-1.109,0.145-1.516,0.435c-0.404,0.29-0.689,0.679-0.854,1.168
		s-0.246,0.993-0.246,1.512c0,0.669,0.096,1.254,0.291,1.753s0.498,0.873,0.908,1.12c0.412,0.247,0.855,0.371,1.336,0.371
		c0.582,0,1.074-0.168,1.479-0.505S116.09,9.96,116.232,9.298z"/>
	<path fill="#004274" d="M118.955,12.059V4.185h3.484c0.699,0,1.232,0.071,1.598,0.212c0.363,0.142,0.654,0.392,0.873,0.75
		s0.326,0.754,0.326,1.187c0,0.559-0.18,1.029-0.541,1.413s-0.918,0.626-1.672,0.73c0.275,0.132,0.484,0.263,0.627,0.392
		c0.305,0.279,0.592,0.628,0.863,1.047l1.367,2.143h-1.309l-1.039-1.638c-0.305-0.473-0.555-0.834-0.752-1.085
		c-0.195-0.25-0.371-0.426-0.527-0.526c-0.154-0.1-0.313-0.17-0.475-0.209c-0.117-0.025-0.311-0.038-0.578-0.038h-1.207v3.497
		H118.955z M119.994,7.66h2.236c0.475,0,0.846-0.049,1.115-0.148c0.268-0.098,0.471-0.256,0.609-0.473
		c0.141-0.216,0.209-0.452,0.209-0.706c0-0.373-0.135-0.679-0.404-0.918s-0.695-0.36-1.277-0.36h-2.488V7.66z"/>
	<path fill="#004274" d="M127.428,12.059V4.185h1.041v7.874H127.428z"/>
	<path fill="#004274" d="M130.688,12.059V4.185h2.965c0.521,0,0.92,0.025,1.195,0.075c0.385,0.064,0.709,0.187,0.971,0.368
		c0.26,0.181,0.471,0.435,0.629,0.76s0.238,0.684,0.238,1.074c0,0.669-0.213,1.236-0.637,1.7c-0.426,0.464-1.193,0.696-2.305,0.696
		h-2.016v3.201H130.688z M131.729,7.928h2.031c0.672,0,1.148-0.125,1.432-0.376c0.281-0.25,0.422-0.604,0.422-1.058
		c0-0.33-0.082-0.611-0.248-0.846c-0.166-0.234-0.385-0.389-0.656-0.464c-0.176-0.046-0.5-0.07-0.971-0.07h-2.01V7.928z"/>
	<path fill="#004274" d="M140.395,12.059V5.114h-2.59V4.185h6.229v0.929h-2.6v6.945H140.395z"/>
	<path fill="#004274" d="M145.662,12.059V4.185h1.041v7.874H145.662z"/>
	<path fill="#004274" d="M148.605,8.224c0-1.307,0.35-2.33,1.051-3.07c0.699-0.739,1.604-1.109,2.711-1.109
		c0.727,0,1.381,0.174,1.963,0.521s1.025,0.832,1.332,1.453c0.305,0.622,0.457,1.326,0.457,2.114c0,0.798-0.16,1.513-0.482,2.143
		c-0.32,0.63-0.777,1.107-1.365,1.431c-0.59,0.324-1.227,0.486-1.908,0.486c-0.74,0-1.402-0.179-1.984-0.537
		s-1.023-0.847-1.324-1.466C148.756,9.57,148.605,8.915,148.605,8.224z M149.678,8.24c0,0.949,0.254,1.696,0.764,2.242
		c0.51,0.546,1.148,0.819,1.916,0.819c0.783,0,1.426-0.276,1.932-0.827s0.76-1.334,0.76-2.347c0-0.641-0.109-1.201-0.326-1.679
		c-0.215-0.478-0.531-0.849-0.947-1.112s-0.885-0.395-1.402-0.395c-0.736,0-1.369,0.253-1.9,0.76
		C149.943,6.208,149.678,7.055,149.678,8.24z"/>
	<path fill="#004274" d="M157.836,12.059V4.185h1.066l4.127,6.182V4.185h0.996v7.874h-1.066l-4.127-6.188v6.188H157.836z"/>
</g>
</svg>
