<?xml version="1.0" standalone="no"?>
<!DOCTYPE svg PUBLIC "-//W3C//DTD SVG 1.1//EN" "http://www.w3.org/Graphics/SVG/1.1/DTD/svg11.dtd" >
<svg xmlns="http://www.w3.org/2000/svg">
<metadata>Generated by IcoMoon</metadata>
<defs>
<font id="sesame" horiz-adv-x="1024">
<font-face units-per-em="1024" ascent="960" descent="-64" />
<missing-glyph horiz-adv-x="1024" />
<glyph unicode="&#x20;" horiz-adv-x="512" d="" />
<glyph unicode="&#xe900;" glyph-name="Bathroom" horiz-adv-x="819" d="M793.6 960c-0.042 0-0.091 0.001-0.14 0.001-10.123 0-18.33-8.206-18.33-18.33 0-1.582 0.2-3.118 0.577-4.582l-7.708-28.289h-204.8c-0.244 0.001-0.532 0.001-0.821 0.001-140.932 0-255.181-114.248-255.181-255.181 0-0.289 0-0.577 0.001-0.865-27.079-2.749-48.406-24.077-51.18-50.91l-0.021-51.445c-53.284-13.39-99.431-38.749-137.215-73.137-38.835-37.406-69.682-83.307-89.503-134.689-0.907-2.555-0.955-2.554-1.003-2.554-13.818 0-25.374-9.689-28.243-22.643-0.040-0.347-0.042-0.529-0.042-0.711 0-12.105 9.656-21.954 21.686-22.264l671.312-0.001c12.058 0.311 21.715 10.16 21.715 22.265 0 0.182-0.002 0.364-0.007 0.546-2.905 13.12-14.46 22.809-28.279 22.809-0.048 0-0.096 0-0.144 0-20.68 53.937-51.527 99.838-90.498 137.359-36.943 34.261-82.401 59.621-132.839 72.556l-2.14 51.665c-3.465 26.767-24.433 47.735-50.904 51.169-0.33 1.222-0.35 2.622-0.35 4.027 0 82.654 67.004 149.658 149.658 149.658 1.405 0 2.806-0.019 4.202-0.058l204.594 0.004 7.68-33.28c-0.264-1.047-0.415-2.25-0.415-3.487 0-8.2 6.648-14.848 14.848-14.848 1.238 0 2.44 0.151 3.589 0.437 0.376-0.055 0.934-0.075 1.497-0.075 12.678 0 23.067 9.805 23.996 22.245l0.005 160.336c-0.935 12.521-11.323 22.325-24.001 22.325-0.563 0-1.121-0.019-1.674-0.057zM409.6 601.6v-51.2h-102.4v51.2h102.4zM614.4 345.6h-512c36.675 75.895 103.922 132.107 185.316 153.167l139.446 0.433c83.327-21.547 150.539-77.742 186.498-151.906zM288 89.6c-14.138 0-25.6-11.462-25.6-25.6v-102.4c0-14.138 11.462-25.6 25.6-25.6s25.6 11.462 25.6 25.6v102.4c0 14.138-11.462 25.6-25.6 25.6zM428.8 89.6c-14.138 0-25.6-11.462-25.6-25.6v-102.4c0-14.138 11.462-25.6 25.6-25.6s25.6 11.462 25.6 25.6v102.4c0 14.138-11.462 25.6-25.6 25.6zM569.6 89.6c-14.138 0-25.6-11.462-25.6-25.6v-102.4c0-14.138 11.462-25.6 25.6-25.6s25.6 11.462 25.6 25.6v102.4c0 0 0 0 0 0 0 14.138-11.462 25.6-25.6 25.6-0.018 0-0.036 0-0.054 0zM147.2 89.6c-14.138 0-25.6-11.462-25.6-25.6v-102.4c0-14.138 11.462-25.6 25.6-25.6s25.6 11.462 25.6 25.6v102.4c0 14.138-11.462 25.6-25.6 25.6zM76.8 243.2c-14.138 0-25.6-11.462-25.6-25.6v-102.4c0-14.138 11.462-25.6 25.6-25.6s25.6 11.462 25.6 25.6v102.4c0 14.138-11.462 25.6-25.6 25.6zM358.4 243.2c-14.138 0-25.6-11.462-25.6-25.6v-102.4c0-14.138 11.462-25.6 25.6-25.6s25.6 11.462 25.6 25.6v102.4c0 14.138-11.462 25.6-25.6 25.6zM499.2 243.2c-14.138 0-25.6-11.462-25.6-25.6v-102.4c0-14.138 11.462-25.6 25.6-25.6s25.6 11.462 25.6 25.6v102.4c0 14.138-11.462 25.6-25.6 25.6zM640 243.2c-14.138 0-25.6-11.462-25.6-25.6v-102.4c0-14.138 11.462-25.6 25.6-25.6s25.6 11.462 25.6 25.6v102.4c0 14.138-11.462 25.6-25.6 25.6zM217.6 243.2c-14.138 0-25.6-11.462-25.6-25.6v-102.4c0-14.138 11.462-25.6 25.6-25.6s25.6 11.462 25.6 25.6v102.4c0 14.138-11.462 25.6-25.6 25.6z" />
<glyph unicode="&#xe901;" glyph-name="Bedroom" d="M970.105 503.565v0 269.474c-4.159 28.829-20.353 53.215-43.232 68.272-117.563 58.579-255.629 92.729-401.671 92.729-6.367 0-12.718-0.065-19.053-0.194-1.112 0.032-3.546 0.041-5.981 0.041-146.491 0-285.021-34.087-408.090-94.762-19.96-10.614-37.234-36.227-38.18-65.961l-0.003-269.598c-30.061-0.953-54.068-25.55-54.068-55.755 0-1.546 0.063-3.077 0.186-4.591l-0.013-424.707c-0.664-2.905-1.044-6.242-1.044-9.667 0-25.003 20.269-45.272 45.272-45.272 3.425 0 6.762 0.38 9.97 1.101l-0.302 215.522h916.211v-215.579c2.905-0.664 6.242-1.044 9.667-1.044 25.003 0 45.272 20.269 45.272 45.272 0 3.425-0.38 6.762-1.101 9.97l0.057 418.999c0.005 0.307 0.008 0.669 0.008 1.032 0 32.135-23.034 58.891-53.493 64.656zM107.789 773.039c108.448 34.671 233.194 54.654 362.608 54.654 15.199 0 30.334-0.276 45.4-0.822 9.826 0.483 23.934 0.722 38.098 0.722 129.305 0 253.952-19.946 371.031-56.929l-8.715-267.099h-808.421v269.474zM53.895 395.776h916.211v-107.789h-916.211v107.789zM215.579 665.25c-29.765 0-53.895-24.129-53.895-53.895v-107.789h323.368v107.789c0 29.765-24.129 53.895-53.895 53.895h-215.579zM592.842 665.25c-29.765 0-53.895-24.129-53.895-53.895v-107.789h323.368v107.789c0 29.765-24.129 53.895-53.895 53.895h-215.579zM242.526 611.355h161.684c14.883 0 26.947-12.065 26.947-26.947v-80.842h-215.579v80.842c0 14.883 12.065 26.947 26.947 26.947zM619.789 611.355h161.684c14.883 0 26.947-12.065 26.947-26.947v-80.842h-215.579v80.842c0 14.883 12.065 26.947 26.947 26.947z" />
<glyph unicode="&#xe902;" glyph-name="grid-view" d="M73.143 960c-40.396 0-73.143-32.747-73.143-73.143v-292.571c0-40.396 32.747-73.143 73.143-73.143h292.571c40.396 0 73.143 32.747 73.143 73.143v292.571c0 40.396-32.747 73.143-73.143 73.143h-292.571zM658.286 960c-40.396 0-73.143-32.747-73.143-73.143v-292.571c0-40.396 32.747-73.143 73.143-73.143h292.571c40.396 0 73.143 32.747 73.143 73.143v292.571c0 40.396-32.747 73.143-73.143 73.143h-292.571zM658.286 374.857c-40.396 0-73.143-32.747-73.143-73.143v-292.571c0-40.396 32.747-73.143 73.143-73.143h292.571c40.396 0 73.143 32.747 73.143 73.143v292.571c0 40.396-32.747 73.143-73.143 73.143h-292.571zM73.143 374.857c-40.396 0-73.143-32.747-73.143-73.143v-292.571c0-40.396 32.747-73.143 73.143-73.143h292.571c40.396 0 73.143 32.747 73.143 73.143v292.571c0 40.396-32.747 73.143-73.143 73.143h-292.571zM73.143 886.857h292.571v-292.571h-292.571v292.571zM658.286 886.857h292.571v-292.571h-292.571v292.571zM73.143 301.714h292.571v-292.571h-292.571v292.571zM658.286 301.714h292.571v-292.571h-292.571v292.571z" />
<glyph unicode="&#xe903;" glyph-name="list-view" d="M36.571 960h950.857c20.198 0 36.571-16.374 36.571-36.571v-73.143c0-20.198-16.374-36.571-36.571-36.571h-950.857c-20.198 0-36.571 16.374-36.571 36.571v73.143c0 20.198 16.374 36.571 36.571 36.571zM36.571 667.429h950.857c20.198 0 36.571-16.374 36.571-36.571v-73.143c0-20.198-16.374-36.571-36.571-36.571h-950.857c-20.198 0-36.571 16.374-36.571 36.571v73.143c0 20.198 16.374 36.571 36.571 36.571zM36.571 374.857h950.857c20.198 0 36.571-16.374 36.571-36.571v-73.143c0-20.198-16.374-36.571-36.571-36.571h-950.857c-20.198 0-36.571 16.374-36.571 36.571v73.143c0 20.198 16.374 36.571 36.571 36.571zM36.571 82.286h950.857c20.198 0 36.571-16.374 36.571-36.571v-73.143c0-20.198-16.374-36.571-36.571-36.571h-950.857c-20.198 0-36.571 16.374-36.571 36.571v73.143c0 20.198 16.374 36.571 36.571 36.571z" />
<glyph unicode="&#xe904;" glyph-name="call" horiz-adv-x="1073" d="M584.488 960c-165.28-0.452-311.104-83.344-398.572-209.706 27.683-21.177 52.745-42.576 75.272-66.397 61.783 93.277 160.535 157.989 274.934 172.955l51.653-80.093 43.763 80.088c178.828-24.023 318.36-165.394 339.359-343.074l-80.987-39.579 81.165-57.613c-14.689-120.447-81.547-222.802-176.929-285.144 8.649-21.175 17.257-44.753 23.097-69.401 0.515-3.77 0.554-5.566 0.554-7.37 0-9.974-1.178-19.674-3.403-28.966 155.663 86.912 259.196 249.985 259.196 437.241 0 271.733-218.020 492.545-488.678 497.055zM373.868 395.722c0 97.819 131.395 115.227 131.395 153.384-1.146 14.919-13.533 26.59-28.646 26.59-1.435 0-2.845-0.105-4.224-0.308-19.068-1.56-35.468-12.362-44.754-27.905l-55.442 32.074c20.882 34.521 58.221 57.242 100.867 57.242 2.207 0 4.401-0.061 6.578-0.181 3.622 0.612 8.15 0.954 12.757 0.954 47.153 0 85.942-35.81 90.655-81.718 0.032-83.009-122.417-98.962-124.572-133.077h129.293v-55.619h-210.189c-2.099 8.496-3.439 18.328-3.715 28.426zM695.565 636.632h107.789v-161.684h53.895v-53.895h-53.895v-53.895h-53.895v53.895h-161.684v53.895zM749.46 474.947v107.789h-29.858l-77.932-107.789h107.789zM696.266 148.237c-107.089 86.609-137 44.032-185.613-4.743-33.9-34.169-119.754 37.080-194.021 111.616s-144.923 160.876-111.023 195.045c48.721 48.883 91.136 78.686 4.904 186.476s-143.414 25.007-190.464-22.312c-13.662-19.468-21.833-43.657-21.833-69.753 0-13.141 2.072-25.798 5.907-37.662 37.869-139.555 112.399-259.292 212.61-351.567 150.722-151.376 302.328-218.313 391.362-219.175 2.516-0.249 5.439-0.391 8.395-0.391 21.945 0 42.064 7.821 57.72 20.829 46.902 47.416 129.146 105.137 22.057 191.692z" />
<glyph unicode="&#xe905;" glyph-name="email" horiz-adv-x="1365" d="M1326.353 960c0 0 0.001 0 0.001 0 21.432 0 38.825-17.297 38.979-38.692v-946.532c-0.193-21.381-17.571-38.639-38.979-38.639-0.001 0-0.001 0-0.002 0h-1287.919c-21.243 0.078-38.434 17.316-38.434 38.57 0 0.024 0 0.048 0 0.072v946.582c0 0.020 0 0.044 0 0.069 0 21.254 17.191 38.493 38.427 38.57h1287.926zM682.667 462.677l477.867 360.789h-963.311zM682.667 345.6l-546.133 409.6v-614.4l341.333 273.067 68.267-68.267-341.333-273.067h955.733l-341.333 273.067 68.267 68.267 341.333-273.067v614.4z" />
<glyph unicode="&#xe906;" glyph-name="fb" horiz-adv-x="546" d="M546.133 593.886h-196.608v91.273s-10.923 86.903 52.565 86.903h129.707v187.255h-220.501s-184.32 0.751-184.32-175.855c0-38.025 0-107.042-0.683-189.645h-126.293v-150.801h126.293c-0.683-239.753-1.365-506.948-1.365-506.948h224.597v506.948h148.821z" />
<glyph unicode="&#xe907;" glyph-name="g" horiz-adv-x="1144" d="M525.854 370.537c-37.23 23.386-66.020 57.204-82.618 97.343-0.506 35.415 9.131 52.1 60.331 92.157 52.295 37.583 86.618 97.328 89.137 165.202 0.394 4.895 0.612 10.146 0.612 15.447 0 72.786-41.101 135.973-101.361 167.616l99.555 0.496 71.078 51.2h-317.44c-142.758 0-276.48-107.701-276.48-232.448-0.003-0.427-0.004-0.932-0.004-1.437 0-126.714 102.722-229.436 229.436-229.436 4.473 0 8.915 0.128 13.325 0.38l28.302 0.936c-9.342-17.14-15.070-37.443-15.657-59.031 1.644-35.31 17.818-66.363 42.602-87.687l-54.653-0.557c-176.489 0-312.019-112.158-312.019-228.412 0-114.447 148.781-186.308 325.271-186.308 200.584 0 311.416 113.965 311.416 228.472 0.317 4.424 0.498 9.586 0.498 14.789 0 81.537-44.362 152.714-110.266 190.71zM951.718 647.62v191.91h-96.376v-192.090h-192.753v-97.943h192.753v-191.849h96.376v191.91h192.753v97.943h-192.753zM321.054-3.765c-116.254 0-200.584 69.030-200.584 152.154 0 81.318 104.207 149.022 221.064 147.878 26.939-0.253 52.811-4.418 77.204-11.953 61.337-40.573 107.116-63.763 119.766-110.867 2.296-8.77 3.614-18.837 3.614-29.213 0-0.043 0-0.086 0-0.128 0-82.877-57.224-147.871-221.064-147.871zM354.786 540.642c-75.896 2.229-147.576 84.329-160.828 183.838s37.948 175.285 113.845 173.116 147.576-82.040 160.828-181.188-37.948-178.056-113.845-175.706z" />
<glyph unicode="&#xe908;" glyph-name="linkedin" horiz-adv-x="1075" d="M1075.2 330.24v-394.24h-230.4v368.64c0 92.16-33.28 158.72-116.736 158.72-54.725-1.625-100.759-37.1-117.995-86.136-5.242-15.652-8.107-32.636-8.107-50.289 0-2.439 0.055-4.865 0.163-7.278l-0.012-383.657h-230.4s3.072 624.64 0 691.2h230.4v-97.28c-0.512 0-1.024 0-1.536-5.12h1.536v5.12c40.878 68.030 114.282 112.845 198.154 112.845 3.418 0 6.818-0.074 10.2-0.222 151.070 0.017 264.734-97.263 264.734-312.303zM130.56 960c-3.256 0.315-7.039 0.494-10.863 0.494-65.601 0-118.877-52.77-119.696-118.177-0.005-0.436-0.007-0.861-0.007-1.285 0-67.271 54.534-121.805 121.805-121.805 2.001 0 3.991 0.048 5.968 0.144l1.257-0.011c2.344-0.16 5.080-0.252 7.837-0.252 67.497 0 122.214 54.717 122.214 122.214 0 0.322-0.001 0.645-0.004 0.967-0.165 65.258-53.146 118.136-118.476 118.136-3.533 0-7.029-0.155-10.483-0.457zM13.824-64h230.4v691.2h-230.4v-691.2z" />
<glyph unicode="&#xe909;" glyph-name="parking" d="M896 960h-768c-0.676 0.013-1.474 0.021-2.273 0.021-69.448 0-125.747-56.299-125.747-125.747 0-0.799 0.007-1.597 0.022-2.393l-0.002-767.881c-0.013-0.676-0.021-1.474-0.021-2.273 0-69.448 56.299-125.747 125.747-125.747 0.799 0 1.597 0.007 2.393 0.022l767.881-0.002c0.676-0.013 1.474-0.021 2.273-0.021 69.448 0 125.747 56.299 125.747 125.747 0 0.799-0.007 1.597-0.022 2.393l0.002 767.881c0.013 0.676 0.021 1.474 0.021 2.273 0 69.448-56.299 125.747-125.747 125.747-0.799 0-1.597-0.007-2.393-0.022zM947.2 56.371c0.057-0.808 0.089-1.75 0.089-2.7 0-22.622-18.338-40.96-40.96-40.96-0.95 0-1.893 0.032-2.827 0.096l-783.182-0.007c-0.792-0.055-1.717-0.086-2.649-0.086-22.622 0-40.96 18.338-40.96 40.96 0 0.949 0.032 1.89 0.096 2.823l-0.007 783.183c-0.054 0.791-0.086 1.715-0.086 2.646 0 22.622 18.338 40.96 40.96 40.96 0.931 0 1.854-0.031 2.77-0.092l783.236 0.007c0.807 0.057 1.748 0.089 2.697 0.089 22.622 0 40.96-18.338 40.96-40.96 0-0.932-0.031-1.857-0.092-2.773l0.007-783.236zM624.282 755.2h-368.282v-614.4h86.63v219.494h281.6c107.739 0.256 194.98 87.655 194.98 195.43 0 0.702-0.004 1.404-0.011 2.104 0.007 0.487 0.011 1.188 0.011 1.891 0 107.767-87.205 195.166-194.898 195.481h-0.030zM624.282 448h-281.6v219.392h281.6c59.569-1.328 107.352-49.932 107.352-109.696s-47.782-108.368-107.228-109.694z" />
<glyph unicode="&#xe90a;" glyph-name="search" horiz-adv-x="1017" d="M996.206 56.905l-214.309 216.503c50.309 70.26 80.445 157.945 80.445 252.669 0 119.58-48.026 227.942-125.843 306.851-78.575 78.711-187.266 127.434-307.337 127.434-239.87 0-434.322-194.453-434.322-434.322s194.453-434.322 434.322-434.322c95.069 0 183.004 30.545 254.525 82.356l213.776-217.302c12.573-12.771 30.048-20.684 49.371-20.684s36.799 7.913 49.363 20.675c12.893 12.789 20.87 30.501 20.87 50.075s-7.976 37.286-20.856 50.062zM200.411 293.23c-59.21 59.712-95.797 141.935-95.797 232.704s36.588 172.993 95.82 232.727c58.949 59.518 140.724 96.384 231.108 96.384s172.159-36.866 231.106-96.381c59.257-59.741 95.859-141.979 95.859-232.766s-36.602-173.025-95.855-232.762c-58.952-59.458-140.694-96.282-231.037-96.282-90.415 0-172.216 36.883-231.178 96.424z" />
<glyph unicode="&#xe90b;" glyph-name="search2" horiz-adv-x="987" d="M764.245 217.293c72.096 78.16 116.305 182.994 116.305 298.154 0 243.182-197.138 440.32-440.32 440.32s-440.32-197.138-440.32-440.32c0-243.182 197.138-440.32 440.32-440.32 0.272 0 0.543 0 0.814 0.001 0.111 0 0.291 0 0.472 0 99.354 0 190.972 33.119 264.417 88.92l212.594-216.032c7.144-7.256 17.019-11.806 27.956-11.98 0.139-0.001 0.264-0.002 0.389-0.002 10.891 0 20.708 4.599 27.614 11.962 7.145 7.346 11.539 17.361 11.539 28.402s-4.394 21.056-11.53 28.391zM79.872 517.666c0.679 198.932 162.102 359.936 361.129 359.936 199.447 0 361.131-161.684 361.131-361.131s-161.682-361.129-361.128-361.131c-199.531 0.389-361.132 162.229-361.132 361.813 0 0.156 0 0.313 0 0.469z" />
<glyph unicode="&#xe90c;" glyph-name="twitter" horiz-adv-x="1260" d="M1260.308 838.932c-43.112-19.65-93.125-33.983-145.569-40.47 50.594 32.418 90.598 81.992 110.37 140.855-46.854-26.694-101.99-48.543-160.704-60.579-50.678 49.633-117.606 80.9-191.836 80.9-142.864 0-258.678-115.814-258.678-258.678 0-20.797 2.454-41.021 7.089-60.397-215.717 12.926-405.131 115.308-532.109 270.703-23.022-35.935-36.007-80.762-36.007-128.622 0-89.34 45.25-168.112 114.081-214.647-42.301 0.856-82.451 12.713-117.499 32.538l1.284-3.976c0.081-124.664 88.256-228.711 205.637-253.264-18.744-6.021-42.206-9.326-66.436-9.353-17.231 0.033-34.019 1.781-50.242 5.081 35.577-103.814 130.416-177.661 242.805-179.788-86.882-68.756-198.275-110.283-319.367-110.283-0.509 0-1.018 0.001-1.526 0.002-0.090 0-0.289 0-0.488 0-21.532 0-42.77 1.259-63.645 3.708 114.717-73.148 251.944-116.5 399.296-116.5 406.014 0 735.153 329.139 735.153 735.153 0 0.192 0 0.384 0 0.576l-0.788 33.368c50.887 36.925 93.754 81.221 128.004 131.826z" />
<glyph unicode="&#xe90d;" glyph-name="Pin" d="M510.72 960c0.804 0.006 1.755 0.010 2.706 0.010 208.937 0 378.56-168.328 380.652-376.771 0.003-0.526 0.003-0.913 0.003-1.301 0-55.304-12.266-107.744-34.225-154.746-95.615-182.659-206.462-342.12-334.562-485.871-1.917-2.351-7.83-5.321-14.437-5.321-0.049 0-0.097 0-0.146 0-0.024 0-0.061 0-0.098 0-6.421 0-12.146 2.983-15.863 7.64-126.066 141.432-236.913 300.894-327.254 472.815-27.236 57.081-39.512 108.814-39.512 163.415 0 1.115 0.005 2.229 0.015 3.341 1.769 208.402 171.26 376.799 380.082 376.799 0.927 0 1.853-0.003 2.778-0.010zM510.72 387.2c106.774 1.8 192.64 88.78 192.64 195.814 0 108.159-87.681 195.84-195.84 195.84-108.15 0-195.825-87.666-195.84-195.812 0.866-108.35 88.9-195.849 197.37-195.849 0.587 0 1.174 0.003 1.759 0.008z" />
<glyph unicode="&#xe90e;" glyph-name="youtub" horiz-adv-x="853" d="M721.92 209.067h-56.32l0.427 34.133c-0.022 0.383-0.034 0.832-0.034 1.284 0 13.479 10.927 24.405 24.405 24.405 0.733 0 1.458-0.032 2.175-0.096l3.321 0.007c0.624 0.057 1.349 0.089 2.082 0.089 13.479 0 24.405-10.927 24.405-24.405 0-0.452-0.012-0.9-0.036-1.346zM511.147 281.6c-0.841 0.108-1.813 0.169-2.8 0.169-12.235 0-22.267-9.432-23.222-21.421l-0.005-157.948c0.96-12.071 10.992-21.502 23.227-21.502 0.987 0 1.959 0.061 2.914 0.18 0.668-0.104 1.573-0.156 2.491-0.156 12.269 0 22.343 9.398 23.415 21.388l0.007 157.957c-1.079 12.080-11.153 21.478-23.421 21.478-0.918 0-1.823-0.053-2.714-0.155zM853.333 371.2v-302.933c-2.353-73.562-62.551-132.301-136.468-132.301-1.073 0-2.144 0.012-3.211 0.037l-574.135-0.003c-0.909-0.022-1.979-0.034-3.052-0.034-73.917 0-134.115 58.739-136.462 132.085l-0.005 303.149c2.353 73.562 62.551 132.301 136.468 132.301 1.073 0 2.144-0.012 3.211-0.037l574.135 0.003c0.909 0.022 1.979 0.034 3.052 0.034 73.917 0 134.115-58.739 136.462-132.085zM177.92 34.133v320h71.253v46.933h-189.867v-46.933h59.307v-320h59.307zM391.253 307.2h-59.307v-170.667c0.356-6.372 0.558-13.829 0.558-21.333s-0.203-14.961-0.603-22.365c-5.076-11.769-26.409-24.569-34.942 1.031-0.678 7.206-1.064 15.581-1.064 24.047 0 6.552 0.231 13.050 0.687 19.485l-0.049 169.801h-59.307l0.427-170.667c0-25.6-0.427-42.667 0-51.2-0.119-1.471-0.187-3.185-0.187-4.914 0-16.087 5.884-30.8 15.618-42.103 7.908-3.009 17.143-4.801 26.797-4.801 26.696 0 50.192 13.705 63.834 34.463l-0.249-33.845h47.787v273.067zM581.12 110.933v140.8c-0.427 55.467-40.533 85.333-95.147 42.667v106.667h-59.307v-362.667h48.64l4.267 21.333c62.293-55.467 101.547-17.067 101.547 51.2zM766.72 128h-44.373v-29.867c-0.565-11.944-10.386-21.414-22.419-21.414-0.669 0-1.331 0.029-1.986 0.087l-8.875-0.006c-0.569-0.051-1.232-0.081-1.901-0.081-12.033 0-21.854 9.47-22.417 21.363l-0.002 64.051h101.973v38.4c0.071 3.44 0.111 7.496 0.111 11.561 0 21.475-1.125 42.687-3.32 63.58-7.031 48.592-78.285 57.126-114.125 31.526-12.067-7.937-21.004-19.782-25.067-33.706-4.794-16.2-7.491-34.322-7.491-53.074 0-2.492 0.048-4.973 0.142-7.442l-0.011-84.978c0-136.533 170.24-119.467 149.76 0zM538.453 588.8c2.719-7.345 7.82-13.274 14.348-16.984 4.92-5.593 11.917-9.058 19.724-9.058 1.681 0 3.325 0.161 4.917 0.468 1.007-0.226 2.354-0.34 3.728-0.34 7.523 0 14.245 3.428 18.69 8.807 7.961 4.831 13.877 12.27 16.603 21.109l-1.21-25.335h66.133v281.6h-52.053v-217.6c0-11.9-9.647-21.547-21.547-21.547s-21.547 9.647-21.547 21.547v217.6h-54.613v-187.733q0-38.4 1.28-51.2c0.926-7.908 2.879-15.118 5.742-21.849zM337.92 746.667c-0.018 1.16-0.028 2.529-0.028 3.9 0 21.314 2.498 42.044 7.219 61.913 4.52 12.026 12.931 23.6 23.801 32.201 10.519 10.739 24.974 17.325 40.967 17.325 1.404 0 2.795-0.051 4.173-0.15 14.22-0.351 27.806-3.454 40.203-8.794 8.899-7.132 17.193-15.562 24.224-24.989 6.45-8.724 10.823-18.834 12.565-29.82 2.040-12.020 3.178-25.421 3.178-39.087 0-2.895-0.051-5.779-0.152-8.649l0.012-67.85c0.061-2.661 0.095-5.796 0.095-8.939 0-17.903-1.12-35.544-3.293-52.857-2.153-10.793-6.613-22.254-12.843-32.522-6.403-8.583-14.995-15.809-24.942-20.702-10.897-5.171-23.156-8.271-36.091-8.709-14.116 0.347-27.265 3.453-39.2 8.787-9.248 3.017-17.523 8.951-23.59 16.698-6.068 9.918-10.407 21.414-12.385 33.701-2.629 14.303-4.091 30.135-4.091 46.309 0 3.412 0.065 6.808 0.194 10.188l-0.015 72.046zM389.973 635.733c-0.136-1.007-0.213-2.171-0.213-3.353 0-14.61 11.844-26.453 26.453-26.453s26.453 11.844 26.453 26.453c0 1.182-0.078 2.346-0.228 3.487l0.014 149.199c0.136 1.007 0.213 2.171 0.213 3.353 0 14.61-11.844 26.453-26.453 26.453s-26.453-11.844-26.453-26.453c0-1.182 0.078-2.346 0.228-3.487l-0.014-149.199zM206.933 558.933h62.293v217.6l73.813 183.467h-68.267l-39.253-136.533-39.68 136.533h-67.413l78.507-183.467v-217.6z" />
<glyph unicode="&#xe90f;" glyph-name="SQFT" d="M51.2 832v-51.2h-51.2v153.6h51.2v-51.2h716.8v51.2h51.2v-153.6h-51.2v51.2h-716.8zM1024 678.4h-51.2v-665.6h51.2v-51.2h-153.6v51.2h51.2v665.6h-51.2v51.2h153.6v-51.2zM819.2 422.4h-51.2v-409.6h-716.8v665.6h460.8v51.2h-512v-768h819.2v460.8zM460.8 371.2h51.2v-358.4h-51.2v358.4zM460.8 422.4h358.4v-51.2h-358.4v51.2zM460.8 678.4h51.2v-256h-51.2v256z" />
<glyph unicode="&#xe910;" glyph-name="mail" horiz-adv-x="1195" d="M1194.667 960h-1194.667l597.333-597.333zM0 789.333v-682.667l341.333 341.333zM597.333 192l-170.667 170.667-426.667-426.667h1194.667l-426.667 426.667zM853.333 448l341.333-341.333v682.667z" />
<glyph unicode="&#xe911;" glyph-name="Mobile" horiz-adv-x="731" d="M672.914 960h-614.4c-32.662-1.543-58.559-28.398-58.559-61.303 0-0.82 0.016-1.636 0.048-2.449l-0.004-895.883c-0.042-0.852-0.066-1.849-0.066-2.853 0-32.956 25.886-59.866 58.434-61.507l614.547-0.006c32.695 1.647 58.58 28.557 58.58 61.513 0 1.003-0.024 2.001-0.071 2.993l0.005 895.86c0.028 0.695 0.044 1.512 0.044 2.332 0 32.904-25.897 59.76-58.421 61.297zM164.571 886.857h402.286c11.153-8.429 18.286-21.667 18.286-36.571s-7.133-28.143-18.171-36.488l-402.401-0.083c-11.153 8.429-18.286 21.667-18.286 36.571s7.133 28.143 18.171 36.488zM658.286 82.286h-585.143v658.286h585.143v-658.286zM365.714-34.743c-24.237 0-43.886 19.648-43.886 43.886s19.648 43.886 43.886 43.886c24.237 0 43.886-19.648 43.886-43.886s-19.648-43.886-43.886-43.886z" />
<glyph unicode="&#xe912;" glyph-name="Phone" d="M966.949 249.051c-73.362 0.060-143.765 12.646-209.213 35.734-0.176-0.317-5.446 0.278-10.855 0.278-15.669 0-30.172-4.997-42-13.485l-124.858-124.927c-161.146 85.529-289.693 214.076-372.892 370.424l122.744 129.873c10.305 8.607 16.814 21.46 16.814 35.834 0 7.745-1.89 15.049-5.234 21.475-17.473 59.229-27.855 127.638-28.402 198.389 0.067 1.318 0.106 2.505 0.106 3.701 0 29.691-24.069 53.76-53.76 53.76-1.196 0-2.383-0.039-3.559-0.116l-182.697 0.008c-38.544-4.295-68.848-34.599-73.109-72.769-0.083-3.942-0.111-8.154-0.111-12.373 0-518.559 420.375-938.935 938.935-938.935 4.219 0 8.431 0.028 12.637 0.083 37.907 4.289 68.21 34.592 72.471 72.763l0.034 183.231c0.069 1.016 0.108 2.203 0.108 3.399 0 29.691-24.069 53.76-53.76 53.76-1.196 0-2.383-0.039-3.559-0.116zM909.897 448h114.103c0.003 0.675 0.005 1.474 0.005 2.272 0 281.518-228.215 509.733-509.733 509.733-0.799 0-1.598-0.002-2.396-0.006l0.124-113.371c0.524 0.003 1.143 0.004 1.763 0.004 218.783 0 396.142-177.359 396.142-396.142 0-0.876-0.003-1.751-0.009-2.626zM682.423 448h114.103c0.010 0.874 0.015 1.907 0.015 2.941 0 155.523-126.077 281.6-281.6 281.6-1.034 0-2.067-0.006-3.098-0.017l0.157-114.102c0.9 0.017 1.962 0.027 3.026 0.027 92.466 0 167.424-74.958 167.424-167.424 0-1.064-0.010-2.126-0.030-3.185z" />
<glyph unicode="&#xe913;" glyph-name="tick" d="M773.495 680.927l-61.528 61.528-276.876-276.876 61.528-61.528 276.876 276.876zM958.077 742.455l-461.46-465.855-184.584 184.584-61.528-61.528 246.112-246.112 527.383 527.383-65.923 61.528zM0 399.656l246.112-246.112 61.528 61.528-246.112 246.112-61.528-61.528z" />
<glyph unicode="&#xe914;" glyph-name="angle-down" horiz-adv-x="658" d="M614.286 521.143q0-7.429-5.714-13.143l-266.286-266.286q-5.714-5.714-13.143-5.714t-13.143 5.714l-266.286 266.286q-5.714 5.714-5.714 13.143t5.714 13.143l28.571 28.571q5.714 5.714 13.143 5.714t13.143-5.714l224.571-224.571 224.571 224.571q5.714 5.714 13.143 5.714t13.143-5.714l28.571-28.571q5.714-5.714 5.714-13.143z" />
<glyph unicode="&#xe915;" glyph-name="angle-up" horiz-adv-x="658" d="M614.286 274.286q0-7.429-5.714-13.143l-28.571-28.571q-5.714-5.714-13.143-5.714t-13.143 5.714l-224.571 224.571-224.571-224.571q-5.714-5.714-13.143-5.714t-13.143 5.714l-28.571 28.571q-5.714 5.714-5.714 13.143t5.714 13.143l266.286 266.286q5.714 5.714 13.143 5.714t13.143-5.714l266.286-266.286q5.714-5.714 5.714-13.143z" />
<glyph unicode="&#xe916;" glyph-name="bars" d="M877.714 182.857v-73.143q0-14.857-10.857-25.714t-25.714-10.857h-804.571q-14.857 0-25.714 10.857t-10.857 25.714v73.143q0 14.857 10.857 25.714t25.714 10.857h804.571q14.857 0 25.714-10.857t10.857-25.714zM877.714 475.428v-73.143q0-14.857-10.857-25.714t-25.714-10.857h-804.571q-14.857 0-25.714 10.857t-10.857 25.714v73.143q0 14.857 10.857 25.714t25.714 10.857h804.571q14.857 0 25.714-10.857t10.857-25.714zM877.714 768v-73.143q0-14.857-10.857-25.714t-25.714-10.857h-804.571q-14.857 0-25.714 10.857t-10.857 25.714v73.143q0 14.857 10.857 25.714t25.714 10.857h804.571q14.857 0 25.714-10.857t10.857-25.714z" />
<glyph unicode="&#xe917;" glyph-name="currency" d="M278.45 703.609c-7.089 5.082-19.142 9.967-35.999 14.574v-106.493c23.082 1.102 38.989 9.531 47.814 25.326 4.568 8.112 6.851 17.485 6.851 28.158 0 16.812-6.185 29.65-18.666 38.435zM185.185 838.775c-7.564-10.119-11.3-20.719-11.3-31.782 0-13.353 4.409-23.788 13.353-31.353 9.016-7.525 20.95-12.838 35.999-15.795v95.153c-17.769-0.746-30.448-6.066-38.052-16.224zM232.642 960c-128.552 0-232.642-104.17-232.642-232.682s104.17-232.682 232.642-232.682 232.642 104.17 232.642 232.682-104.090 232.682-232.642 232.682zM298.496 598.489c-12.917-8.35-31.584-13.901-56.045-16.581v-39.267h-19.221v39.267c-39.187 2.561-65.893 16.462-79.913 41.709-7.683 13.67-11.459 32.059-11.459 55.26h35.722c1.063-18.508 4.059-31.98 8.825-40.488 8.468-15.241 23.986-23.788 46.831-25.676v110.308c-29.221 5.551-50.884 14.772-64.824 27.768-13.94 12.957-20.91 30.917-20.91 53.841 0 20.521 7.525 38.989 22.528 55.451 15.082 16.462 36.158 24.811 63.213 25.089v26.937h19.221v-26.508c26.937-1.888 47.458-9.769 61.755-23.709 14.416-13.94 21.98-32.336 22.607-55.22h-35.366c-0.944 10.237-3.703 19.062-8.31 26.508-8.548 13.63-22.092 20.798-40.686 21.425v-98.579c31.353-8.746 52.54-16.977 63.761-24.653 18.237-12.68 27.293-31.471 27.293-56.283 0.106-35.913-11.63-61.438-35.022-76.599zM232.642 401.331c-128.592 0-232.642-104.209-232.642-232.642 0-128.512 104.17-232.682 232.642-232.682s232.642 104.17 232.642 232.682c0.007 128.473-104.090 232.642-232.642 232.642zM321.063 17.055c-10.237-4.924-21.148-7.406-32.765-7.406-8.468 0-22.686 3.228-42.692 9.769-19.927 6.462-35.643 9.69-47.26 9.69-10.673 0-20.871-1.809-30.402-5.511-5.67-2.284-12.838-6.066-21.782-11.419l-20.91 30.052c15.835 11.148 28.712 23.511 38.521 36.943 9.729 13.472 14.574 28.118 14.574 43.913 0 4.528-0.865 9.769-2.719 15.835-1.181 3.861-3.030 9.016-5.749 15.676h-46.791v22.013h33.201c0-0.706-2.363 3.703-7.089 13.234-4.766 9.531-7.874 16.462-9.452 20.831-1.34 4.099-2.482 8.865-3.584 14.218-0.983 5.472-1.459 11.3-1.459 17.445 0 22.013 9.016 41.788 26.937 59.154 17.841 17.366 43.517 26.112 76.995 26.112 31.471 0 55.22-8.627 71.365-25.795 16.105-17.247 24.495-41.59 24.97-73.022h-39.227c0 21.307-4.964 37.491-14.884 48.521-9.967 11.069-25.089 16.62-45.412 16.62-19.689 0-34.699-5.162-44.818-15.557-10.158-10.396-15.28-22.963-15.28-37.768 0-7.327 1.617-14.884 4.805-22.607 3.109-7.756 9.848-21.623 20.204-41.511h69.398v-22.052h-59.906c1.419-6.462 2.442-11.538 3.030-15.241 0.667-3.663 0.904-7.445 0.904-11.379 0-14.099-4.211-28.079-12.6-41.828-8.548-13.782-21.782-27.372-39.854-40.963 9.729 4.924 19.3 8.904 28.752 11.736 9.452 2.878 18.706 4.29 27.689 4.29 10.158 0 23.67-2.442 40.29-7.485 16.779-5.003 27.65-7.485 32.923-7.485 6.614 0 12.64 1.3 18.237 3.822 3.307 1.578 8.548 4.805 15.439 9.729l17.485-28.633c-7.769-6.138-14.818-10.825-21.082-13.94zM791.351 960c-128.552 0-232.642-104.17-232.642-232.682s104.17-232.682 232.642-232.682 232.642 104.209 232.642 232.682c0.007 128.512-104.17 232.682-232.642 232.682zM883.158 604.198c-20.6-26.587-48.441-39.854-83.457-39.854-30.171 0-55.451 10.871-76.091 32.686-19.34 20.521-31.861 49.115-37.26 85.781h-53.088l8.825 29.894h41.313c-0.317 5.749-0.475 11.657-0.475 17.722 0 5.201 0.158 10.396 0.475 15.597h-50.098l8.865 29.933h44.62c4.845 25.676 13.782 47.933 26.778 66.758 22.013 31.782 52.223 47.656 90.903 47.656 32.923 0 58.329-10.317 76.527-30.996 18.277-20.64 28.316-44.111 30.362-70.381h-34.382c-3.822 19.927-11.538 35.762-23.234 47.418-11.617 11.657-27.887 17.485-48.837 17.485-25.676 0-46.474-10.752-62.151-32.257-8.746-11.815-14.924-27.056-18.785-45.728h117.522l-8.865-29.933h-112.915c-0.515-7.168-0.667-14.772-0.667-22.765 0-3.624 0.079-7.168 0.158-10.554h122.248l-8.865-29.894h-110.235c3.386-18.429 9.373-34.382 17.96-47.854 14.099-22.448 35.326-33.716 63.57-33.716 25.993 0 45.841 11.855 59.471 35.603 7.247 12.521 12.449 28.95 15.993 49.313h34.382c-3.155-32.521-13.274-59.854-30.567-81.913zM791.351 401.331c-128.552 0-232.642-104.209-232.642-232.642 0-128.552 104.17-232.682 232.642-232.682s232.642 104.17 232.642 232.682c0.007 128.473-104.17 232.642-232.642 232.642zM904.504 226.78v-30.521h-57.425l-29.069-49.385h79.081v-30.521h-84.52v-106.691h-42.851v106.691h-82.144v30.521h76.758l-29.069 49.385h-58.369v30.521h40.448l-59.392 101.061h50.375l82.823-153.007 83.14 153.007h50.494l-59.669-101.061h39.385z" />
<glyph unicode="&#xe918;" glyph-name="for-sale" d="M977.457 843.641h-930.913c-25.711 0-46.543-20.854-46.543-46.554v-698.178c0-25.701 20.832-46.554 46.543-46.554 25.701 0 46.547 20.854 46.547 46.554v651.63h244.377v-23.502c-22.812-5.278-41.079-17.879-49.899-34.687h-124.659c-12.856 0-23.268-10.412-23.268-23.268v-488.732c0-12.845 10.412-23.268 23.268-23.268h744.735c12.845 0 23.268 10.42 23.268 23.268v488.735c0 12.856-10.423 23.268-23.268 23.268h-124.666c-8.814 16.812-27.080 29.412-49.903 34.687v23.502h244.38c25.711 0 46.543 20.846 46.543 46.547s-20.832 46.551-46.543 46.551zM884.355 203.641h-698.167v442.167h698.167v-442.167zM686.533 727.042c-22.812-5.289-41.079-17.879-49.867-34.687h-202.777c-8.799 16.812-27.066 29.401-49.878 34.687v23.502h302.522v-23.502zM284.668 340.552c-42.501 0-36.623 33.278-59.41 33.278-10.233 0-17.667-7.157-17.667-17.401 0-19.977 23.821-46.612 77.077-46.612 50.675 0 75.79 24.845 75.79 58.134 0 21.5-9.733 44.287-48.146 53l-35.068 7.933c-13.323 3.068-28.686 7.168-28.686 19.955 0 12.823 10.754 21.788 30.21 21.788 39.178 0 35.588-27.4 55.044-27.4 10.254 0 19.212 6.122 19.212 16.621 0 24.587-38.668 43.033-71.432 43.033-35.588 0-73.491-15.367-73.491-56.334 0-19.722 6.924-40.723 45.078-50.445l47.356-12.033c14.332-3.579 17.922-11.778 17.922-19.212 0-12.27-12.033-24.307-33.788-24.307zM393.457 310.841c9.988 0 15.867 3.345 18.701 11.523l11.009 30.734h67.591l10.743-30.734c3.076-8.178 9.744-11.523 18.957-11.523 10.754 0 19.722 8.199 19.722 18.432 0 4.624-2.576 12.033-4.11 16.147l-50.701 141.078c-4.61 13.057-13.057 15.346-22.532 15.346h-9.988c-10.233 0-16.887-3.32-20.476-12.787l-54.276-143.633c-1.534-4.114-4.089-11.523-4.089-16.147-0.007-11.257 7.926-18.436 19.449-18.436zM457.211 456.275h0.525l23.8-74.001h-49.166l24.842 74.001zM586.479 314.187h87.565c12.033 0 21.756 6.133 21.756 17.656s-9.723 17.667-21.756 17.667h-70.153v131.345c0 12.554-8.178 20.987-20.99 20.987s-21.001-8.433-21.001-20.987v-142.099c0-18.691 9.744-24.569 24.58-24.569zM743.909 314.187h100.621c12.288 0 21.245 3.568 21.245 16.887 0 13.323-8.957 16.901-21.245 16.901h-83.21v44.557h71.177c11.012 0 19.722 3.068 19.722 16.132 0 13.057-8.709 16.122-19.722 16.122h-71.177v39.943h81.165c12.288 0 21.256 3.579 21.256 16.901 0 13.312-8.964 16.891-21.256 16.891h-98.581c-14.843 0-24.576-5.878-24.576-24.565v-135.2c0.004-18.691 9.737-24.569 24.58-24.569z" />
<glyph unicode="&#xe919;" glyph-name="guestroom" d="M112.59 48.59c-0.328 1.77-0.884 3.512-1.576 5.198-0.692 1.66-1.548 3.264-2.544 4.756-0.996 1.52-2.156 2.934-3.428 4.206-6.416 6.412-15.956 9.374-24.942 7.574-1.77-0.36-3.512-0.912-5.172-1.604-1.686-0.692-3.29-1.52-4.784-2.514-1.52-1.024-2.932-2.184-4.204-3.456s-2.434-2.686-3.456-4.206c-0.996-1.494-1.852-3.098-2.544-4.756-0.692-1.686-1.216-3.428-1.576-5.198-0.36-1.772-0.526-3.594-0.526-5.392 0-7.272 2.958-14.406 8.102-19.55 1.272-1.272 2.682-2.434 4.204-3.426 1.494-0.996 3.098-1.856 4.784-2.546 1.66-0.692 3.402-1.214 5.172-1.574s3.594-0.552 5.392-0.552c1.798 0 3.622 0.194 5.392 0.552 1.77 0.36 3.512 0.882 5.17 1.574 1.686 0.692 3.29 1.552 4.784 2.546 1.52 0.992 2.932 2.154 4.204 3.426 5.144 5.144 8.102 12.278 8.102 19.55-0.002 1.798-0.196 3.622-0.554 5.392zM965.612 48.592c-0.334 1.768-0.89 3.51-1.582 5.196-0.692 1.66-1.548 3.264-2.544 4.756-0.996 1.52-2.156 2.934-3.428 4.206-5.14 5.14-12.274 8.102-19.548 8.102-7.276 0-14.406-2.958-19.55-8.102-1.272-1.272-2.434-2.686-3.428-4.206-1.024-1.494-1.852-3.098-2.544-4.756-0.718-1.686-1.244-3.428-1.604-5.198-0.36-1.772-0.522-3.594-0.522-5.392 0-7.272 2.956-14.406 8.102-19.55 1.272-1.272 2.682-2.434 4.204-3.426 1.494-0.996 3.098-1.856 4.784-2.546 1.66-0.692 3.398-1.214 5.172-1.574 1.77-0.36 3.594-0.554 5.392-0.554 7.272 0 14.406 2.958 19.548 8.102 5.144 5.144 8.104 12.278 8.104 19.55-0.002 1.798-0.196 3.624-0.556 5.392zM1023.65 502.675c-4.040 52.254-42.004 94.734-91.676 105.972-22.076 95.030-107.518 164.306-206.976 164.306-2.108 0-4.23-0.036-6.376-0.102-47.216 67.69-123.244 107.6-206.618 107.6s-159.402-39.91-206.616-107.6c-2.144 0.066-4.27 0.102-6.376 0.102-99.468 0-184.894-69.266-206.972-164.3-49.666-11.226-87.65-53.712-91.69-105.98-3.932-50.896 25.52-98.038 70.828-117.79v-205.482c0-15.27 12.38-27.652 27.652-27.652h57.216l-31.096-29.988c-10.992-10.602-11.31-28.108-0.708-39.1 5.426-5.628 12.662-8.458 19.906-8.458 6.91 0 13.826 2.574 19.194 7.748l72.372 69.798h552.567l72.372-69.798c5.364-5.174 12.28-7.748 19.19-7.748 7.244 0 14.478 2.828 19.906 8.458 10.602 10.992 10.284 28.498-0.71 39.1l-31.094 29.99h57.216c15.27 0 27.652 12.382 27.652 27.652v205.478c45.316 19.754 74.768 66.896 70.836 117.794zM299.013 717.65c5.666 0 11.592-0.34 17.612-1.010 10.718-1.194 21.162 3.958 26.738 13.196 36.008 59.682 99.056 95.312 168.644 95.312 69.59 0 132.634-35.63 168.644-95.312 5.578-9.238 16.022-14.37 26.738-13.196 6.020 0.67 11.942 1.010 17.612 1.010 69.65 0 130.022-45.906 150.12-110.426-17.704-5.122-33.998-14.658-47.532-28.106-21.726-21.596-33.724-50.378-33.782-80.996l-0.164-48.308c-22.108 16.528-49.528 26.326-79.194 26.326h-99.056c-41.78 0-79.082-19.454-103.394-49.754-24.31 30.302-61.612 49.754-103.394 49.754h-99.066c-28.966 0-55.77-9.366-77.6-25.188l-0.158 47.134c-0.056 30.658-12.050 59.436-33.78 81.036-13.904 13.82-30.716 23.538-48.988 28.548 20.238 64.288 80.492 109.98 150 109.98zM540.033 360.449c7.71 34.508 38.562 60.384 75.358 60.384h99.056c42.584 0 77.234-34.646 77.234-77.234v-6.216h-250.54v6.218c0 5.71-0.402 11.326-1.108 16.848zM483.967 360.449c-0.706-5.522-1.108-11.136-1.108-16.848v-6.216h-250.528l-0.014 4.026v2.19c0 42.584 34.646 77.234 77.234 77.234h99.058c36.798 0 67.65-25.878 75.358-60.386zM104.73 431.879c-30.486 6.654-51.652 35.26-49.238 66.534 2.398 31.026 28.682 56.414 59.798 57.798 0.222 0.012 0.44 0.008 0.658 0.014 0.382 0.006 0.76-0.024 1.144-0.006 0.5 0.020 0.996 0.024 1.494 0.036 14.526-0.106 28.3-5.888 38.838-16.364 11.232-11.166 17.434-26.052 17.462-41.954l0.544-162.396h-48.942v69.318c0 13-9.056 24.246-21.758 27.020zM126.488 207.057v73.182h771.028v-73.182h-771.028zM919.272 431.881c-12.704-2.774-21.756-14.016-21.756-27.020v-69.318h-47.354l0.544 162.436c0.030 15.864 6.232 30.75 17.462 41.912 10.508 10.448 24.232 16.22 38.714 16.36 0.6-0.008 1.206-0.012 1.786-0.038 31.156-1.386 57.436-26.776 59.836-57.798 2.424-31.28-18.748-59.884-49.232-66.534zM551.111 634.941l7.168 7.168c10.798 10.798 10.798 28.308 0 39.108-10.796 10.79-28.3 10.796-39.108 0l-7.172-7.17-7.17 7.17c-10.798 10.796-28.308 10.796-39.106 0-10.798-10.798-10.798-28.308 0-39.108l7.168-7.168-7.168-7.17c-10.796-10.798-10.796-28.31 0.002-39.108 5.4-5.398 12.476-8.1 19.552-8.1s14.156 2.702 19.552 8.1l7.17 7.17 7.17-7.17c5.4-5.398 12.476-8.1 19.552-8.1s14.152 2.702 19.552 8.1c10.798 10.798 10.798 28.308 0 39.108l-7.162 7.17zM751.357 583.927l7.168 7.17c10.798 10.798 10.798 28.308 0 39.108-10.796 10.79-28.3 10.796-39.108 0l-7.17-7.17-7.17 7.17c-10.802 10.796-28.31 10.796-39.108 0-10.798-10.798-10.798-28.308 0-39.108l7.168-7.17-7.168-7.168c-10.796-10.798-10.796-28.308 0.002-39.106 5.4-5.398 12.476-8.1 19.552-8.1s14.152 2.702 19.552 8.1l7.17 7.17 7.17-7.17c5.4-5.398 12.476-8.1 19.552-8.1s14.156 2.702 19.554 8.1c10.798 10.798 10.798 28.308 0 39.108l-7.164 7.166zM358.031 576.763l-7.17 7.164 7.168 7.17c10.798 10.798 10.802 28.308 0 39.108-10.798 10.792-28.308 10.792-39.106 0l-7.17-7.17-7.17 7.17c-10.798 10.796-28.308 10.796-39.106 0-10.798-10.798-10.798-28.308 0-39.108l7.174-7.17-7.168-7.168c-10.802-10.798-10.802-28.308-0.002-39.106 5.4-5.398 12.476-8.1 19.552-8.1s14.156 2.702 19.552 8.1l7.17 7.17 7.17-7.17c5.4-5.398 12.476-8.1 19.552-8.1s14.156 2.702 19.552 8.1c10.8 10.8 10.8 28.31 0.002 39.11z" />
<glyph unicode="&#xe91a;" glyph-name="oven" d="M980.854 960h-937.708c-23.827 0-43.146-19.319-43.146-43.146v-937.705c0-23.827 19.319-43.146 43.146-43.146h937.708c23.827 0 43.146 19.319 43.146 43.146v937.705c0 23.827-19.319 43.146-43.146 43.146zM937.708 22.292h-851.416v851.416h851.416v-851.416zM204.819 630.42h614.455c23.827 0 43.146 19.319 43.146 43.146v91.687c0 23.827-19.319 43.146-43.146 43.146s-43.146-19.319-43.146-43.146v-48.541h-528.162v48.541c0 23.827-19.319 43.146-43.146 43.146s-43.146-19.319-43.146-43.146v-91.687c0-23.827 19.319-43.146 43.146-43.146zM204.819 88.754h615.411c23.827 0 43.146 19.319 43.146 43.146v373.054c0 23.827-19.319 43.146-43.146 43.146h-615.411c-23.827 0-43.146-19.319-43.146-43.146v-373.054c0-23.827 19.319-43.146 43.146-43.146zM247.965 461.808h529.119v-286.762h-529.119v286.762zM352.065 366.766c17.462 6.054 40.557 11.643 63.459 11.846 8.363 0.079 15.287-0.801 20.154-1.163-2.285 0.055-0.559 0.003-1.036 0.010 48.645-7.286 54.499-47.713 146.241-42.973 3.058 0.1 23.603 2.81 34.838 6.72 26.419 7.846 49.29 23.91 63.711 41.027 1.978 2.351 2.147 5.733 0.407 8.267s-4.953 3.593-7.859 2.592c-30.213-10.393-59.614-11.466-91.411-9.679 1.753 0.035 0.418 0.017 0.777 0.031-10.203 1.346-40.644 3.845-66.307 18.387-21.028 11.066-54.688 33.899-106.402 17.859-27.61-8.25-50.122-24.876-64.122-42.166-1.919-2.371-2.033-5.723-0.283-8.218 1.753-2.499 4.95-3.538 7.832-2.54zM673.057 278.445c-19.761-6.513-44.444-11.404-64.767-11.498-6.879-0.418-22.098 0.746-27.72 1.063 1.753 0.035 0.418 0.017 0.777 0.031-64.419 8.491-54.82 16.713-101.041 35.501-14.041 4.466-36.726 11.58-71.664 0.746-27.465-8.208-49.949-24.441-64.077-41.969-1.916-2.378-2.023-5.74-0.255-8.232s4.97-3.51 7.849-2.496c25.277 8.902 53.291 12.706 83.52 10.455-2.285 0.055-0.559 0.003-1.036 0.010 27.803-4.166 25.584-10.051 63.476-29.174 67.757-31.69 147.977-8.305 182.411 34.807 1.885 2.361 1.995 5.678 0.273 8.16-1.726 2.482-4.877 3.541-7.746 2.596z" />
<glyph unicode="&#xe91b;" glyph-name="mail-send" d="M1006.128 188.881c0.385 0.077 0.761 0.181 1.14 0.278 0.323 0.083 0.648 0.151 0.965 0.249 0.37 0.113 0.731 0.252 1.093 0.382 0.32 0.115 0.643 0.219 0.959 0.352 0.341 0.142 0.669 0.308 1.001 0.465 0.323 0.154 0.651 0.296 0.968 0.468 0.317 0.169 0.616 0.361 0.924 0.545 0.317 0.19 0.637 0.367 0.945 0.574 0.329 0.219 0.634 0.462 0.95 0.699 0.266 0.198 0.539 0.385 0.799 0.598 0.48 0.394 0.936 0.814 1.38 1.247 0.080 0.077 0.166 0.142 0.246 0.222 0.083 0.083 0.154 0.175 0.234 0.261 0.426 0.438 0.841 0.888 1.232 1.362 0.228 0.278 0.426 0.569 0.64 0.856 0.219 0.296 0.45 0.583 0.654 0.891 0.219 0.329 0.412 0.669 0.613 1.007 0.169 0.284 0.349 0.563 0.506 0.856 0.184 0.341 0.338 0.693 0.5 1.039 0.145 0.308 0.299 0.613 0.432 0.93 0.142 0.341 0.255 0.687 0.379 1.033 0.121 0.338 0.252 0.672 0.355 1.016 0.107 0.349 0.184 0.705 0.272 1.060 0.086 0.349 0.187 0.693 0.255 1.045 0.083 0.417 0.133 0.838 0.192 1.258 0.041 0.296 0.098 0.589 0.127 0.888 0.074 0.737 0.113 1.475 0.113 2.215v474.665c0 12.267-9.94 22.207-22.207 22.207h-699.526c-0.195 0-0.385-0.024-0.58-0.030-0.423-0.012-0.844-0.030-1.264-0.065-0.335-0.027-0.666-0.065-0.998-0.11-0.379-0.047-0.755-0.104-1.131-0.172-0.352-0.062-0.702-0.136-1.048-0.216-0.352-0.083-0.705-0.172-1.054-0.272-0.346-0.098-0.687-0.204-1.024-0.317-0.346-0.118-0.693-0.243-1.033-0.379-0.323-0.127-0.64-0.258-0.953-0.4-0.349-0.157-0.696-0.326-1.039-0.5-0.293-0.151-0.58-0.305-0.865-0.468-0.343-0.195-0.681-0.403-1.016-0.616-0.275-0.178-0.545-0.361-0.811-0.548-0.314-0.222-0.625-0.453-0.93-0.696-0.278-0.222-0.551-0.45-0.82-0.684-0.266-0.234-0.53-0.468-0.788-0.717-0.293-0.281-0.574-0.574-0.853-0.871-0.139-0.148-0.287-0.278-0.42-0.429-0.080-0.089-0.142-0.187-0.219-0.275-0.278-0.323-0.539-0.66-0.799-1.001-0.19-0.249-0.385-0.497-0.563-0.752-0.231-0.332-0.444-0.672-0.657-1.016-0.175-0.281-0.355-0.56-0.515-0.847-0.187-0.332-0.349-0.672-0.518-1.013-0.154-0.311-0.314-0.622-0.453-0.939-0.145-0.335-0.272-0.681-0.4-1.022-0.127-0.335-0.258-0.666-0.367-1.004-0.11-0.341-0.198-0.687-0.293-1.033-0.095-0.355-0.195-0.708-0.275-1.066-0.074-0.335-0.124-0.675-0.184-1.013-0.065-0.385-0.13-0.77-0.178-1.155-0.038-0.32-0.056-0.645-0.080-0.971-0.030-0.415-0.056-0.829-0.062-1.247-0.003-0.121-0.018-0.24-0.018-0.361v-136.95c0-12.267 9.94-22.207 22.207-22.207s22.207 9.94 22.207 22.207v87.63l197.44-174.806c-1.030-0.725-2.022-1.528-2.946-2.449l-194.496-194.496v145.94c0 12.267-9.94 22.207-22.207 22.207s-22.207-9.94-22.207-22.207v-27.134h-114.737c-12.267 0-22.207-9.94-22.207-22.207s9.94-22.207 22.207-22.207h114.737v-128.005c0-12.267 9.94-22.207 22.207-22.207h699.526c0.731 0 1.463 0.038 2.191 0.11 0.341 0.033 0.669 0.098 1.004 0.145 0.385 0.053 0.764 0.098 1.143 0.172zM979.586 264.273l-194.499 194.496c-0.124 0.124-0.258 0.228-0.385 0.346l146.221 124.055c9.351 7.935 10.5 21.947 2.564 31.3-7.929 9.348-21.941 10.503-31.3 2.564l-249.849-211.975-291.489 258.071h618.737v-398.859zM550.377 427.359c1.584 1.584 2.869 3.349 3.873 5.226l83.058-73.535c4.199-3.716 9.457-5.581 14.722-5.581 5.111 0 10.218 1.756 14.37 5.273l84.645 71.815c0.77-1.125 1.637-2.2 2.635-3.198l194.496-194.496h-592.295l194.496 194.496zM22.207 454.636h375.056c12.267 0 22.207 9.94 22.207 22.207s-9.94 22.207-22.207 22.207h-375.056c-12.267 0-22.207-9.94-22.207-22.207s9.94-22.207 22.207-22.207zM61.070 577.015h168.404c12.267 0 22.207 9.94 22.207 22.207s-9.94 22.207-22.207 22.207h-168.404c-12.267 0-22.207-9.94-22.207-22.207s9.94-22.207 22.207-22.207zM185.060 289.313h-162.853c-12.267 0-22.207-9.94-22.207-22.207s9.94-22.207 22.207-22.207h162.853c12.267 0 22.207 9.94 22.207 22.207s-9.94 22.207-22.207 22.207z" />
<glyph unicode="&#xe91c;" glyph-name="living-room" d="M698.863 755.2h-42.871c-42.377 0-79.172-28.723-89.446-69.854l-25.19-100.813h350.891l-25.207 100.813c-10.274 41.131-47.053 69.854-89.429 69.854h-44.595c-8.772 114.364-104.448 204.8-221.013 204.8h-119.467c-169.387 0-307.2-137.813-307.2-307.2v-614.4h-85.333v-102.4h204.8v102.4h-85.333v614.4c0 150.562 122.505 273.067 273.067 273.067h119.467c97.758 0 178.21-75.127 186.863-170.667zM833.946 677.086l14.609-58.419h-263.509l14.592 58.419c6.502 25.89 29.662 43.981 56.371 43.981h121.6c26.692 0 49.852-18.091 56.337-43.981zM170.667 4.267v-34.133h-136.533v34.133h136.533zM981.094 499.2h-50.739c-23.637 0-42.889-19.251-42.889-42.906v-8.789c-57.259-4.847-102.4-52.924-102.4-111.411v-41.694h-203.093c-29.167 0-52.907-23.74-52.907-52.907v-254.293h34.133v-51.2h102.4v51.2h221.867v-51.2h102.4v51.2h34.133v469.094c0 23.654-19.251 42.906-42.906 42.906zM819.2 336.094c0 39.663 29.85 72.482 68.267 77.175v-118.869h-68.267v41.694zM631.467-29.867h-34.133v17.067h34.133v-17.067zM955.733-29.867h-34.133v17.067h34.133v-17.067zM989.867 21.333h-426.667v220.16c0 10.342 8.414 18.773 18.773 18.773h407.893v-238.933zM921.6 294.4v161.894c0 4.847 3.925 8.772 8.772 8.772h50.739c4.83 0 8.755-3.925 8.755-8.772v-161.894h-68.267z" />
<glyph unicode="&#xe91d;" glyph-name="house" d="M1018.368 535.204l-259.403 340.248c-5.205 6.825-13.292 10.916-21.87 10.916-0.052 0-0.1 0-0.155 0-8.633 0-16.744-4.236-21.901-11.16l-58.267-78.232h-475.409c-11.136 0-21.176-6.715-25.425-17.009l-151.85-367.884c-3.507-8.489-2.541-18.16 2.561-25.79 5.106-7.633 13.68-12.212 22.86-12.212h31.803v-158.173c-34.382-10.438-61.313-43.458-61.313-82.502 0-47.395 39.13-85.954 86.528-85.954h202.852c19.309 0 37.149 6.402 51.511 17.191h143.32v-27.505c0-15.19 13.46-27.505 28.65-27.505h453.838c15.19 0 26.36 12.316 26.36 27.505v453.838h3.438c10.459 0 20.010 5.948 24.652 15.324 4.635 9.376 3.559 20.588-2.781 28.905zM938.046 64.643h-116.898v106.583c0 15.19-11.171 27.505-26.36 27.505h-110.021c-15.19 0-28.65-12.316-28.65-27.505v-106.583h-116.898v426.333h398.828v-426.333zM766.137 64.643h-55.011v79.078h55.011v-79.078zM281.359 219.36h-55.011v55.011h55.011v-55.011zM86.528 164.349h202.852c17.064 0 30.944-13.88 30.944-30.944s-13.88-30.944-30.944-30.944h-202.852c-17.064 0-30.944 13.88-30.944 30.944s13.88 30.944 30.944 30.944zM336.37 204.583v97.293c0 15.19-11.171 27.505-26.36 27.505h-110.021c-15.19 0-28.65-12.316-28.65-27.505v-82.516h-55.011v154.718h367.884v-44.696h-64.18c-15.19 0-28.65-12.316-28.65-27.505v-110.021c0-15.19 13.46-27.505 28.65-27.505h64.18v-44.696h-109.99c0.725 4.48 0.543 9.073 0.543 13.753-0.003 29.575-14.327 55.705-38.394 71.177zM737.35 812.991l203.588-267.001h-402.506l198.919 267.001zM484.208 219.36h-37.82v55.011h37.82v-55.011zM265.612 545.986l42.234 96.269h233.685l-71.703-96.269h-204.217zM582.505 697.265h-292.626c-10.92 0-20.801-6.457-25.188-16.455l-66.37-151.279c-3.73-8.506-2.919-18.319 2.163-26.092 5.082-7.777 13.739-12.463 23.025-12.463h260.699v-61.887h-413.584l129.144 312.873h416.032l-33.295-44.696zM876.159 415.336c0 15.19-12.316 27.505-27.505 27.505h-220.043c-15.19 0-27.505-12.316-27.505-27.505v-137.527c0-15.19 12.316-27.505 27.505-27.505h220.043c15.19 0 27.505 12.316 27.505 27.505v137.527zM821.148 305.314h-55.011v82.516h55.011v-82.516zM656.116 387.83h55.011v-82.516h-55.011v82.516z" />
<glyph unicode="&#xe91e;" glyph-name="shower" d="M899.299 958.907h-231.597c-143.524 0-260.507-115.484-263.093-258.401-83.491-11.478-154.028-67.979-183.222-147.306h-7.693c-17.463 0-31.62-14.156-31.62-31.62v-96.705c0-17.463 14.156-31.62 31.62-31.62h444.83c17.463 0 31.62 14.156 31.62 31.62v96.705c0 17.463-14.156 31.62-31.62 31.62h-7.693c-29.166 79.251-99.595 135.717-182.979 147.271 2.552 108.060 91.188 195.197 199.851 195.197h231.597c17.463 0 31.62 14.156 31.62 31.62s-14.156 31.62-31.62 31.62zM626.899 456.492h-381.588v33.466h381.591v-33.466zM581.62 553.2h-291.032c28.442 52.28 83.63 86.252 145.516 86.252s117.074-33.972 145.516-86.252zM251.414 327.142c-17.239 2.764-33.466-8.951-36.242-26.19l-15.582-96.775c-2.776-17.242 8.951-33.466 26.194-36.242 1.701-0.272 3.393-0.405 5.065-0.405 15.247 0 28.676 11.061 31.18 26.598l15.582 96.772c2.77 17.239-8.958 33.466-26.197 36.242zM215.725 105.499c-17.236 2.773-33.466-8.951-36.242-26.19l-15.582-96.775c-2.776-17.242 8.951-33.466 26.194-36.242 1.701-0.272 3.393-0.405 5.065-0.405 15.247 0 28.676 11.061 31.18 26.598l15.582 96.772c2.773 17.239-8.955 33.466-26.197 36.242zM362.529 103.324c-17.388 0.926-32.334-12.442-33.267-29.88l-5.252-97.881c-0.936-17.438 12.442-32.334 29.88-33.267 0.575-0.032 1.151-0.047 1.72-0.047 16.686 0 30.642 13.065 31.547 29.928l5.252 97.881c0.936 17.435-12.442 32.331-29.88 33.267zM374.56 327.5c-17.448 0.904-32.334-12.442-33.27-29.88l-5.255-97.881c-0.936-17.438 12.442-32.334 29.88-33.27 0.579-0.032 1.151-0.044 1.723-0.044 16.686 0 30.639 13.065 31.547 29.925l5.255 97.881c0.936 17.438-12.442 32.334-29.88 33.27zM504.57 166.427c0.572 0 1.145 0.013 1.723 0.044 17.438 0.936 30.816 15.832 29.88 33.27l-5.255 97.881c-0.936 17.438-15.813 30.804-33.27 29.88-17.438-0.936-30.816-15.832-29.88-33.27l5.255-97.881c0.907-16.863 14.861-29.925 31.547-29.925zM516.601-57.753c0.569 0 1.145 0.016 1.72 0.047 17.438 0.936 30.816 15.832 29.88 33.267l-5.252 97.881c-0.936 17.438-15.813 30.823-33.267 29.88-17.438-0.936-30.816-15.832-29.88-33.267l5.252-97.881c0.904-16.863 14.861-29.928 31.547-29.928zM646.428 167.932c17.242 2.776 28.97 19.003 26.194 36.242l-15.582 96.775c-2.776 17.239-18.994 28.967-36.242 26.19-17.242-2.776-28.97-19.003-26.194-36.245l15.582-96.772c2.504-15.541 15.93-26.598 31.18-26.598 1.67 0.003 3.361 0.136 5.062 0.408zM682.117-53.712c17.242 2.776 28.97 19.003 26.194 36.242l-15.582 96.775c-2.776 17.239-18.997 28.967-36.242 26.19-17.242-2.776-28.97-19.003-26.194-36.245l15.582-96.772c2.504-15.541 15.93-26.598 31.18-26.598 1.67 0.003 3.361 0.136 5.062 0.408z" />
<glyph unicode="&#xe91f;" glyph-name="uniE91F" d="M537.056 264.592c-3.152 34.288-1.952 58.224-1.952 89.552 15.728 8.16 43.888 60.112 48.64 104 12.368 1.008 31.872 12.928 37.568 59.968 3.072 25.264-9.136 39.472-16.592 43.936 20.112 59.76 61.904 244.656-77.28 263.76-14.304 24.848-64.624 37.424-112.288 37.424-190.688-3.472-213.68-142.256-171.872-301.184-7.44-4.464-19.664-18.672-16.608-43.936 5.728-47.040 25.2-58.96 37.568-59.968 4.736-43.872 34.032-95.84 49.792-104 0-31.328 1.168-55.264-1.968-89.552-37.728-100.24-304.064-72.096-304.064-265.376h832c0 193.28-265.2 165.136-302.944 265.376zM680 431.216h80v-48h-80v48zM968 640h-120v63.216c0 13.568-9.024 32.784-24 32.784h-162.176c1.792-16 2.176-22.4 2.176-32 0-5.2 0.128-16 0.208-16h135.792v-48h-134.8c1.552-64 2.080-128-17.2-176h360v127.216c0 28.336-9.664 48.784-40 48.784zM784 432v-48.784c0-5.856-10.192-31.216-24-31.216h-80c-19.648 0-40 11.024-40 31.216v48.784h-13.984c-18.72-32-42.016-67.36-42.016-128.384 0-35.376 12.272-44.272 48-63.792 9.28-5.104 19.936-15.824 31.488-15.824h301.088c14.144 0 22.24 4.672 32.32 14.784 10.080 10.128 11.104 21.888 11.104 36.112v157.104h-224z" />
<glyph unicode="&#xe920;" glyph-name="binoculars" d="M891.259 368.887v306.076c0 31.369-25.522 56.889-56.889 56.889v190.222c10.472 0 18.963 8.491 18.963 18.963s-8.491 18.963-18.963 18.963h-170.667c-10.472 0-18.963-8.491-18.963-18.963s8.491-18.963 18.963-18.963v-190.222c-31.367 0-56.889-25.519-56.889-56.889v-37.333h-189.63v37.333c0 31.369-25.522 56.889-56.889 56.889v190.222c10.472 0 18.963 8.491 18.963 18.963s-8.491 18.963-18.963 18.963h-170.667c-10.472 0-18.963-8.491-18.963-18.963s8.491-18.963 18.963-18.963v-190.222c-31.367 0-56.889-25.519-56.889-56.889v-306.076c-22.071-7.827-37.926-28.907-37.926-53.627v-322.37c0-31.367 25.522-56.889 56.889-56.889h246.519c31.367 0 56.889 25.522 56.889 56.889v322.37c0 24.721-15.855 45.798-37.926 53.627v41.188h189.63v-41.188c-22.071-7.827-37.926-28.907-37.926-53.627v-322.37c0-31.367 25.522-56.889 56.889-56.889h246.519c31.367 0 56.889 25.522 56.889 56.889v322.37c0 24.721-15.855 45.798-37.926 53.627zM796.444 922.074v-189.63h-94.815v189.63h94.815zM322.37 922.074v-189.63h-94.815v189.63h94.815zM644.741 674.963c0 10.456 8.507 18.963 18.963 18.963h170.667c10.456 0 18.963-8.507 18.963-18.963v-302.815h-208.593v302.815zM189.63 693.926h170.667c10.456 0 18.963-8.507 18.963-18.963v-302.815h-208.593v302.815c0 10.456 8.507 18.963 18.963 18.963zM417.185-7.111c0-10.456-8.507-18.963-18.963-18.963h-246.519c-10.456 0-18.963 8.507-18.963 18.963v18.963h227.556c10.472 0 18.963 8.491 18.963 18.963s-8.491 18.963-18.963 18.963h-227.556v265.481c0 10.456 8.507 18.963 18.963 18.963h246.519c10.456 0 18.963-8.507 18.963-18.963v-322.37zM417.185 448v151.704h189.63v-151.704h-189.63zM891.259-7.111c0-10.456-8.507-18.963-18.963-18.963h-246.519c-10.456 0-18.963 8.507-18.963 18.963v18.963h227.556c10.472 0 18.963 8.491 18.963 18.963s-8.491 18.963-18.963 18.963h-227.556v265.481c0 10.456 8.507 18.963 18.963 18.963h246.519c10.456 0 18.963-8.507 18.963-18.963v-322.37zM512 580.741c-31.367 0-56.889-25.519-56.889-56.889s25.522-56.889 56.889-56.889 56.889 25.519 56.889 56.889-25.522 56.889-56.889 56.889zM512 504.889c-10.456 0-18.963 8.507-18.963 18.963s8.507 18.963 18.963 18.963 18.963-8.507 18.963-18.963-8.507-18.963-18.963-18.963z" />
<glyph unicode="&#xe921;" glyph-name="bed" d="M987.943 502.131h-23.438v261.41c0 14.584-8.785 27.731-22.256 33.313-137.099 56.785-281.855 85.582-430.249 85.582s-293.15-28.796-430.249-85.582c-13.471-5.582-22.256-18.729-22.256-33.313v-261.41h-23.438c-19.915 0-36.057-16.146-36.057-36.057v-416.451c0-19.911 16.143-36.057 36.057-36.057s36.057 16.143 36.057 36.057v142.422h879.775v-142.422c0-19.911 16.143-36.057 36.057-36.057 19.911 0 36.057 16.143 36.057 36.057v416.451c-0.003 19.911-16.146 36.057-36.061 36.057zM131.606 739.157c246.225 95.642 514.562 95.642 760.787 0v-237.027h-35.564c7.513 36.095 2.52 72.797-15.115 108.068-5.392 10.785-15.819 18.16-27.779 19.656-81.923 10.24-164.992 10.24-246.915 0-11.96-1.496-22.387-8.871-27.779-19.656-17.636-35.268-22.628-71.973-15.115-108.068h-24.252c7.513 36.095 2.52 72.797-15.115 108.068-5.392 10.785-15.819 18.16-27.779 19.656-81.923 10.24-164.992 10.24-246.915 0-11.96-1.496-22.387-8.871-27.779-19.656-17.636-35.268-22.628-71.973-15.115-108.068h-35.564v237.027zM596.72 560.65c62.309 6.358 125.211 6.358 187.52 0 5.427-17.529 5.427-34.613 0-52.141-62.309-6.358-125.211-6.358-187.52 0-5.427 17.529-5.427 34.613 0 52.141zM239.761 560.65c62.309 6.358 125.211 6.358 187.52 0 5.427-17.529 5.427-34.613 0-52.141-62.309-6.358-125.211-6.358-187.52 0-5.427 17.529-5.427 34.613 0 52.141zM72.111 430.016h879.775v-165.86h-879.775v165.86z" />
<glyph unicode="&#xe922;" glyph-name="uniE922" d="M651.248 470.83c10.48 27.58 16.131 79.222 15.204 138.943l-0.462 29.773h134.497v49.381h-134.914l-0.722 10.721c-0.397 5.896-1.047 16.435-1.444 23.419l-0.722 12.698 82.871-0.353c80.233-0.342 83.008-0.436 87.19-2.952 5.779-3.477 11.452-12.3 13.215-20.552 0.848-3.97 1.412-20.193 1.374-39.494l-0.065-32.756 131.898-0.761 7.692-3.898c8.45-4.283 11.901-7.782 15.441-15.656 4.409-9.806 5.013-20.727 4.909-88.628l-0.103-66.599h-358.41z" />
<glyph unicode="&#xe923;" glyph-name="uniE923" d="M650.19 466.388c12.032 36.611 15.103 60.701 16.072 126.051l0.698 47.107h133.526v49.381h-134.698l-1.337 23.066c-0.735 12.686-1.188 23.25-1.007 23.475s37.773-0.067 83.536-0.65c81.152-1.032 83.295-1.125 86.792-3.737 4.898-3.658 9.157-10.436 11.045-17.577 0.948-3.586 1.819-19.444 2.186-39.809l0.609-33.848 57.98-0.838c82.147-1.187 75.344-0.749 82.611-5.311 14.087-8.842 16.355-14.894 17.934-47.868 0.656-13.697 1.142-46.686 1.080-73.309l-0.112-48.406h-178.832c-169.734 0-178.794 0.116-178.084 2.274z" />
<glyph unicode="&#xe924;" glyph-name="uniE924" d="M655.18 226.372c-1.657 0.669-8.382 4.626-14.944 8.793s-16.86 10.458-22.884 13.978c-14.839 8.673-24.799 18.528-28.794 28.493-2.884 7.193-3.121 9.507-3.068 29.888 0.066 24.975 1.909 36.906 9.18 59.411 4.499 13.927 15.751 37.525 26.353 55.269l5.629 9.421h12.699l0.013-26.964c0.012-25.667 0.162-27.284 3.109-33.614 3.51-7.537 9.19-12.412 19.218-16.49 6.553-2.665 9.247-2.826 53.681-3.206 53.887-0.461 52.326-0.757 60.657 11.511 7.893 11.624 8.866 16.475 8.866 44.222v24.541h222.3l-0.736-176.082-3.067-6.173c-3.45-6.943-14.299-17.498-21.829-21.236-4.821-2.394-10.451-2.487-164.18-2.729-96.485-0.152-160.375 0.229-162.201 0.966z" />
<glyph unicode="&#xe925;" glyph-name="uniE925" d="M634.344 239.258c-34.136 20.903-40.654 26.628-45.796 40.224-2.547 6.733-2.696 9.059-2.088 32.59 0.553 21.392 1.169 27.379 3.955 38.427 5.459 21.647 13.272 40.155 27.799 65.857l8.631 15.269h12.505v-26.164c0-16.098 0.58-28.101 1.508-31.198 2.283-7.621 8.95-14.486 18.227-18.769l8.204-3.788 47.431-0.376c54.612-0.433 53.004-0.731 61.405 11.358 7.691 11.066 8.767 16.526 8.767 44.483v24.455h222.372l-0.904-88.69c-0.762-74.725-1.209-89.292-2.841-92.513-2.613-5.157-13.945-16.993-19.692-20.568l-4.661-2.899-323.574-0.71z" />
<glyph unicode="&#xe926;" glyph-name="uniE926" d="M680.934 406.936v23.391h77.97v-46.782h-77.97z" />
<glyph unicode="&#xe927;" glyph-name="uniE927" d="M537.056 201.376c-3.152 34.288-1.952 58.224-1.952 89.552 15.728 8.144 43.888 60.112 48.64 104 12.368 1.008 31.872 12.928 37.568 59.968 3.072 25.264-9.136 39.472-16.592 43.936 20.112 59.76 61.904 244.656-77.28 263.76-14.304 24.832-64.624 37.408-112.272 37.408-190.688-3.472-213.68-142.256-171.888-301.184-7.424-4.464-19.664-18.672-16.608-43.936 5.728-47.040 25.2-58.944 37.568-59.968 4.736-43.872 34.016-95.856 49.792-104 0-31.328 1.184-55.264-1.968-89.552-37.728-100.224-304.064-72.080-304.064-265.36h832c0 193.28-265.2 165.136-302.944 265.376zM999.168 743.216c-17.024 14.176-52.896 22.592-101.456 25.264l-17.712 0.512v96.208l13.408-0.016c35.84 0 55.28-14 55.28-42.48l1.824-6.704h57.488v8.272c0 37.776-9.28 63.584-27.312 77.488-17.968 13.888-52.688 20.864-100.688 20.864v37.376h-48v-37.376c-48 0-81.152-7.296-100.064-21.76-18.88-14.544-25.808-41.456-25.808-80.816 0-40.592 5.552-68.304 24.384-83.072 18.848-14.784 53.488-22.192 101.488-22.192v-104.176l-4.56 0.256c-26.32 0-41.84 3.44-49.504 10.272-7.6 6.848-9.936 22.16-9.936 45.808v5.056h-63.024l-0.288-12.288c0-38.848 9.344-65.68 28.064-81.344s46-23.312 92.032-23.312l7.216-0.064v-42.992h48v43.008l16.656 0.304c46.16 0 80.096 8.192 98.656 24.56 18.464 16.4 28.576 44.848 28.576 85.488 0 37.712-7.712 63.712-24.72 77.856zM832 771.12c0 0.336-4.16 0.512-4.528 0.512-38.528 0-55.152 15.936-55.152 47.824 0 30.48 15.488 45.696 54.176 45.696l5.504 0.288v-94.32zM895.664 608h-15.664v112h6.896c29.6 0 48.72-6.928 58.032-13.152 9.344-6.24 13.808-22.336 13.808-41.968 0-35.776-21.12-56.88-63.072-56.88z" />
<glyph unicode="&#xe928;" glyph-name="uniE928" d="M832.975 533.451v21.257l-7.988 0.835c-4.393 0.459-12.141 0.838-17.218 0.843-10.834 0.009-31.512 2.942-42.075 5.968-40.609 11.634-60.045 42.395-60.064 95.060l-0.005 14.619h62.375l0.020-13.97c0.022-15.167 2.022-26.139 6.014-32.992 5.086-8.73 18.73-13.165 44.97-14.616l13.97-0.773v52.617c0 28.939-0.439 52.636-0.975 52.66-37.795 1.652-59.143 4.538-76.555 10.351-20.865 6.966-30.997 15.266-38.866 31.84-6.147 12.946-8.499 26.247-9.309 52.629-1.281 41.729 3.889 66.135 17.588 83.022 13.531 16.68 44.257 26.61 87.65 28.326l20.467 0.809v37.284h46.782v-37.297l20.467-0.781c32.605-1.245 60.402-7.346 74.658-16.387 20.064-12.724 30.284-35.596 31.842-71.261l0.752-17.218h-27.984c-31.888 0-28.833-1.309-30.896 13.242-1.483 10.458-4.527 16.988-10.572 22.679-9.557 8.997-24.496 13.4-45.596 13.437l-12.67 0.023v-97.462l8.122-0.012c20.089-0.028 56.322-4.533 73.746-9.171 35.375-9.415 49.243-22.126 57.326-52.544 3.504-13.186 4.914-51.897 2.494-68.493-3.435-23.561-12.5-43.669-25.291-56.1-16.076-15.624-51.386-25.474-91.449-25.512-8.361-0.008-17.395-0.377-20.076-0.82l-4.873-0.805v-42.543h-46.782v21.257zM920.041 610.382c27.022 8.18 38.985 25.209 38.985 55.494 0 14.19-2.902 27.468-7.635 34.929-6.804 10.727-27.018 17.762-54.416 18.938l-17.218 0.739v-113.817l16.569 0.776c9.463 0.444 19.634 1.704 23.716 2.94zM832.975 818.225v47.431l-9.421-0.023c-12.131-0.029-25.821-2.953-32.635-6.972-12.718-7.5-17.839-17.355-18.747-36.080-1.66-34.235 15.479-50.828 53.331-51.63l7.472-0.158z" />
<glyph unicode="&#xe929;" glyph-name="uniE929" d="M832.975 533.557v21.362l-5.523 0.67c-3.038 0.368-11.955 0.992-19.817 1.386-45.699 2.29-72.25 13.998-87.071 38.396-9.016 14.843-13.197 31.939-14.511 59.34l-0.831 17.322h62.779v-14.671c0-16.029 2.255-27.452 6.632-33.599 5.506-7.732 19.706-12.15 43.748-13.61l14.595-0.886v105.532l-4.223 0.646c-2.323 0.355-10.833 1-18.91 1.432-37.683 2.019-65.981 10.16-80.276 23.095-13.789 12.477-19.658 30.042-21.153 63.31-4.041 89.942 16.933 112.531 109.294 117.709l15.269 0.856v37.374h46.782v-37.398l15.919-0.864c34.682-1.882 60.052-6.77 75.337-14.515 21.563-10.927 33.038-35.42 35.447-75.665l0.882-14.736-26.712 0.442c-21.674 0.359-27.050 0.81-28.503 2.391-0.985 1.072-2.496 5.977-3.359 10.901-2.018 11.519-5.098 17.413-12.506 23.934-9.037 7.954-18.609 10.781-39.287 11.602l-17.218 0.684v-97.448l15.269-0.909c42.372-2.523 76.369-9.656 94.707-19.871 13.693-7.628 23.534-21.608 28.33-40.244 5.166-20.074 5.189-63.655 0.044-83.913-2.99-11.775-12.533-30.685-19.218-38.083-16.617-18.39-53.885-29.090-101.589-29.166-19.091-0.031-17.543 1.987-17.543-22.876v-21.29h-46.782zM909.998 608.388c15.606 1.886 30.867 9.368 37.891 18.577 1.78 2.333 4.836 7.727 6.792 11.985 3.058 6.657 3.633 9.843 4.1 22.731 0.902 24.835-3.862 39.729-14.959 46.77-11.066 7.021-28.419 10.942-53.345 12.054l-10.721 0.478v-114.835l10.071 0.51c5.539 0.28 14.616 1.059 20.17 1.73zM832.975 818.409v47.616l-13.97-0.694c-18.485-0.918-27.211-4.106-36.137-13.2-8.484-8.644-10.319-14.789-10.319-34.555 0-13.745 0.293-15.54 3.647-22.37 4.787-9.748 13.183-17.051 23.419-20.37 10.123-3.283 12.382-3.647 23.94-3.864l9.421-0.177z" />
<glyph unicode="&#xe92a;" glyph-name="uniE92A" d="M529.056 201.376c-3.152 34.288-1.952 58.224-1.952 89.552 15.728 8.144 43.888 60.112 48.64 104 12.368 1.008 31.872 12.928 37.568 59.968 3.072 25.264-9.136 39.472-16.592 43.936 20.112 59.76 61.904 244.656-77.28 263.76-14.304 24.832-64.624 37.408-112.288 37.408-190.688-3.472-213.68-142.256-171.872-301.184-7.44-4.464-19.664-18.672-16.608-43.936 5.728-47.040 25.2-58.944 37.568-59.968 4.736-43.872 34.032-95.856 49.776-104 0-31.328 1.184-55.264-1.952-89.552-37.728-100.224-304.064-72.080-304.064-265.36h832c0 193.28-265.2 165.136-302.944 265.376zM986.464 896h-322.32c-20.72 0-40.144-27.392-40.144-48v-64c23.696-24.88 38.56-47.232 48-67.312v99.312h80v-112h-74.624c6.768-17.968 9.296-33.904 10.16-48h64.464v-112h-64c0-16.112 0-32.16 0-48h64v-112h-64c0-12.256 0-28.688 0-48h64v-112h-64c0-15.776 0-31.872 0-48h176v-240h122.464c20.72 0 37.536 16.72 37.536 37.312v885.376c0 20.608-16.816 37.312-37.536 37.312zM864 224h-80v112h80v-112zM864 384h-80v112h80v-112zM864 544h-80v112h80v-112zM864 704h-80v112h80v-112zM976 64h-80v112h80v-112zM976 224h-80v112h80v-112zM976 384h-80v112h80v-112zM976 544h-80v112h80v-112zM976 704h-80v112h80v-112z" />
<glyph unicode="&#xe92b;" glyph-name="uniE92B" d="M864.162 56.678v120.248h-175.431v46.782h63.675v113.056h-63.675v46.782h63.675v113.056h-63.675v46.782h63.675v113.056h-31.878c-24.395 0-31.985 0.381-32.331 1.624-0.249 0.893-1.122 6.724-1.94 12.958s-2.847 16.028-4.509 21.767l-3.022 10.433h73.681v113.056h-80.569l-0.020-96.812-5.643 9.878c-9.522 16.669-19.926 30.954-34.353 47.169l-6.878 7.73 0.76 74.27 4.112 8.68c4.809 10.151 12.82 19.325 21.153 24.224l5.922 3.482h339.168l6.614-3.49c7.734-4.081 14.1-10.889 17.939-19.185l2.736-5.914v-900.548l-2.736-5.914c-3.838-8.296-10.204-15.104-17.939-19.185l-6.614-3.49-131.898-0.74zM977.218 120.398v56.528h-81.868v-113.056h81.868zM864.162 280.236v56.528h-80.569v-113.056h80.569zM977.218 280.236v56.528h-81.868v-113.056h81.868zM864.162 440.073v56.528h-80.569v-113.056h80.569zM977.218 440.073v56.528h-81.868v-113.056h81.868zM864.162 599.911v56.528h-80.569v-113.056h80.569zM977.218 599.911v56.528h-81.868v-113.056h81.868zM864.162 759.748v56.528h-80.569v-113.056h80.569zM977.218 759.748v56.528h-81.868v-113.056h81.868z" />
<glyph unicode="&#xe92c;" glyph-name="uniE92C" d="M864.162 56.628v120.298h-175.431v46.782h63.675v113.056h-63.675v46.782h63.675v113.056h-63.675v46.782h63.675v112.758l-31.103 0.498c-17.107 0.274-31.426 0.82-31.82 1.214s-1.882 7.401-3.308 15.57c-1.425 8.17-3.48 17.725-4.566 21.233s-1.975 6.871-1.975 7.472c0 0.601 16.374 1.093 36.386 1.093h36.386v113.056h-80.569l-0.115-95.513-2.866 5.004c-7.84 13.686-21.355 32.813-32.102 45.432l-11.966 14.051 1.894 74.559 3.837 7.636c4.316 8.591 13.559 19.122 20.826 23.728l4.847 3.072h170.324c190.173 0 172.853 0.892 184.104-9.479 3.198-2.948 7.225-8.142 8.948-11.542l3.132-6.182v-902.021l-3.132-6.182c-3.312-6.537-12.263-15.635-18.486-18.79-3.035-1.539-16.021-2.057-70.321-2.804l-66.599-0.917zM977.218 120.398v56.528h-81.868v-113.056h81.868zM864.162 280.236v56.528h-80.569v-113.056h80.569zM977.218 280.236v56.528h-81.868v-113.056h81.868zM864.162 440.073v56.528h-80.569v-113.056h80.569zM977.218 440.073v56.528h-81.868v-113.056h81.868zM864.162 599.911v56.528h-80.569v-113.056h80.569zM977.218 599.911v56.528h-81.868v-113.056h81.868zM864.162 759.748v56.528h-80.569v-113.056h80.569zM977.218 759.748v56.528h-81.868v-113.056h81.868z" />
<glyph unicode="&#xe92d;" glyph-name="duplex-house" d="M473.8 95.724c5.198 0 10.277 2.119 13.949 5.792 3.67 3.647 5.767 8.749 5.767 13.924 0 5.2-2.097 10.277-5.767 13.949-3.672 3.672-8.751 5.767-13.949 5.767-5.2 0-10.277-2.095-13.949-5.767-3.647-3.672-5.767-8.749-5.767-13.949 0-5.175 2.117-10.277 5.767-13.924 3.672-3.672 8.749-5.792 13.949-5.792zM316.072 291.196h-138.32c-10.888 0-19.716-8.828-19.716-19.716v-196.852c0-10.888 8.828-19.716 19.716-19.716h138.32c10.888 0 19.716 8.828 19.716 19.716v196.852c0 10.888-8.828 19.716-19.716 19.716zM296.356 251.764v-58.995h-98.888v58.995h98.888zM197.468 94.344v58.995h98.888v-58.995h-98.888zM709.673 54.912h138.32c10.888 0 19.716 8.828 19.716 19.716v196.852c0 10.888-8.828 19.716-19.716 19.716h-138.32c-10.888 0-19.716-8.828-19.716-19.716v-196.852c0-10.888 8.828-19.716 19.716-19.716zM729.389 94.344v58.995h98.888v-58.995h-98.888zM828.277 251.764v-58.995h-98.888v58.995h98.888zM316.072 587.141h-138.32c-10.888 0-19.716-8.828-19.716-19.716v-196.852c0-10.888 8.828-19.716 19.716-19.716h138.32c10.888 0 19.716 8.828 19.716 19.716v196.852c0 10.888-8.828 19.716-19.716 19.716zM296.356 547.709v-58.995h-98.888v58.995h98.888zM197.468 390.289v58.995h98.888v-58.995h-98.888zM414.241 350.857h195.519c10.888 0 19.716 8.828 19.716 19.716v196.852c0 10.888-8.828 19.716-19.716 19.716h-195.519c-10.888 0-19.716-8.828-19.716-19.716v-196.852c0-10.888 8.828-19.716 19.716-19.716zM433.957 390.289v58.995h156.087v-58.995h-156.087zM590.043 547.709v-58.995h-156.087v58.995h156.087zM709.673 350.857h138.32c10.888 0 19.716 8.828 19.716 19.716v196.852c0 10.888-8.828 19.716-19.716 19.716h-138.32c-10.888 0-19.716-8.828-19.716-19.716v-196.852c0-10.888 8.828-19.716 19.716-19.716zM729.389 390.289v58.995h98.888v-58.995h-98.888zM828.277 547.709v-58.995h-98.888v58.995h98.888zM986.005-24.568h-20.537v651.449h19.408c0.017 0 0.037 0 0.049 0 10.891 0 19.716 8.828 19.716 19.716 0 2.876-0.614 5.607-1.72 8.071l-77.77 213.3c-2.837 7.783-10.238 12.963-18.523 12.963h-38.404v59.353c0 10.888-8.828 19.716-19.716 19.716h-119.22c-10.888 0-19.716-8.828-19.716-19.716v-59.353h-592.2c-8.283 0-15.684-5.18-18.523-12.963l-78.248-214.619c-2.206-6.045-1.321-12.786 2.368-18.057s9.718-8.411 16.155-8.411h19.408v-651.449h-20.537c-10.888 0-19.716-8.828-19.716-19.716s8.828-19.716 19.716-19.716h948.010c10.888 0 19.716 8.828 19.716 19.716s-8.828 19.716-19.716 19.716zM749.004 920.568h79.788v-39.637h-79.788v39.637zM131.171 841.499h761.661l63.872-175.187h-889.406l63.872 175.187zM97.964 626.881h828.072v-651.449h-296.561v296.048c0 10.888-8.828 19.716-19.716 19.716h-195.519c-10.888 0-19.716-8.828-19.716-19.716v-296.048h-296.561v651.449zM590.043-24.568h-156.087v276.332h156.087v-276.332z" />
<glyph unicode="&#xe92e;" glyph-name="logout" d="M762.129 698.129c-18.171 18.174-47.647 18.178-65.825 0.003-18.174-18.178-18.178-47.647 0-65.825l137.756-137.762h-570.297c-25.706 0-46.545-20.84-46.545-46.545s20.84-46.545 46.545-46.545h570.29l-137.75-137.75c-18.178-18.178-18.178-47.647 0-65.825 9.089-9.089 21.001-13.632 32.914-13.632s23.825 4.543 32.911 13.632l217.206 217.206c18.178 18.174 18.178 47.647 0 65.825l-217.206 217.218zM480.97-64c25.706 0 46.545 20.84 46.545 46.545s-20.84 46.545-46.545 46.545h-356.848v837.818h356.848c25.706 0 46.545 20.84 46.545 46.545s-20.84 46.545-46.545 46.545h-403.394c-25.706 0-46.545-20.84-46.545-46.545v-930.909c0-25.706 20.84-46.545 46.545-46.545h403.394z" />
<glyph unicode="&#xe92f;" glyph-name="neighborhood" d="M978.541 241.611l-80.699 137.398h-269.976l-80.697-137.398v-231.914h-70.335v231.914l-80.697 137.398h-269.978l-80.697-137.398v-231.914h-45.459v-62.061h1024v62.061h-45.459v231.914zM862.32 316.949l30.981-52.745h-260.89l30.979 52.745h198.931zM609.228 202.143h307.252v-192.446h-122.597v120.042h-62.061v-120.042h-122.595v192.446zM360.611 316.949l30.979-52.745h-260.888l30.979 52.745h198.931zM107.52 202.143h307.252v-192.446h-122.597v120.042h-62.061v-120.042h-122.595v192.446zM978.541 579.051v231.914l-80.699 137.398h-269.976l-80.697-137.398v-231.914h-70.335v231.914l-80.697 137.398h-269.978l-80.697-137.398v-231.914h-45.459v-62.061h1024v62.061h-45.459zM862.32 886.303l30.981-52.747h-260.89l30.979 52.747h198.931zM609.228 771.495h307.252v-192.444h-122.597v120.040h-62.061v-120.040h-122.595v192.444zM360.611 886.303l30.979-52.747h-260.888l30.979 52.747h198.931zM107.52 771.495h307.252v-192.444h-122.597v120.040h-62.061v-120.040h-122.595v192.444z" />
<glyph unicode="&#xe930;" glyph-name="password" d="M807.783 529.746c-17.953 0-32.55-14.641-32.55-32.659v-31.809h65.166v31.809c0 18.018-14.663 32.659-32.615 32.659zM898.222 684.718h-772.445c-69.131 0-125.778-56.69-125.778-125.821v-221.794c0-69.24 56.647-125.821 125.778-125.821h772.445c69.131 0 125.778 56.581 125.778 125.821v221.794c0 69.131-56.647 125.821-125.778 125.821zM273.648 413.642l30.175-32.855-52.268-39.217-21.439 39.217c-3.159 5.599-8.105 16.58-15.055 32.855-7.604-17.887-12.658-28.781-15.164-32.855l-21.744-39.217-53.727 39.217 32.485 32.855c9.151 9.042 18.018 16.798 26.777 23.16-8.933 0.806-20.676 2.462-35.165 5.185l-44.991 7.321 20.872 61.266 40.35-18.345c4.249-1.917 14.815-7.952 31.635-17.953-3.595 16.275-5.904 28.367-6.95 36.298l-5.73 43.858h64.076l-5.185-43.858c-1.133-10.676-3.617-22.768-7.299-36.298 7.386 3.704 12.266 6.166 14.576 7.517 8.105 4.51 14.358 7.626 18.563 9.63l40.372 19.151 20.001-61.266-44.642-9.325c-8.17-1.569-20.284-2.593-36.385-3.181 10.915-8.541 19.456-16.21 25.861-23.16zM569.453 413.642l30.219-32.855-52.268-39.195-21.417 39.195c-3.159 5.599-8.105 16.58-15.033 32.855-7.626-17.887-12.637-28.781-15.142-32.855l-21.787-39.195-53.706 39.195 32.485 32.855c9.151 9.042 17.996 16.798 26.777 23.16-8.889 0.806-20.676 2.462-35.165 5.185l-45.012 7.321 20.894 61.266 40.372-18.345c4.205-1.917 14.815-7.952 31.613-17.953-3.682 16.275-5.991 28.367-6.972 36.298l-5.752 43.814h64.098l-5.207-43.814c-1.177-10.676-3.617-22.768-7.255-36.298 7.342 3.704 12.223 6.166 14.554 7.517 8.061 4.51 14.336 7.626 18.563 9.63l40.394 19.151 20.022-61.266-44.686-9.325c-8.17-1.569-20.24-2.593-36.363-3.181 10.828-8.541 19.391-16.21 25.774-23.16zM900.902 358.128c0-13.486-11.046-24.511-24.511-24.511h-137.151c-13.486 0-24.511 11.024-24.511 24.511v82.661c0 13.486 11.024 24.511 24.511 24.511h3.312v31.809c0 36.014 29.26 65.318 65.231 65.318 35.993 0 65.275-29.282 65.275-65.318v-31.809h3.312c13.443 0 24.511-11.024 24.511-24.511v-82.661z" />
<glyph unicode="&#xe931;" glyph-name="Sign-in" d="M273.203-64c-37.703 0-68.267 30.564-68.267 68.267v0 136.533c0 37.703 30.564 68.267 68.267 68.267s68.267-30.564 68.267-68.267v0 0-68.267h546.133v750.933h-546.133v-68.267c0-37.703-30.564-68.267-68.267-68.267s-68.267 30.564-68.267 68.267v0 136.533c0 37.703 30.564 68.267 68.267 68.267v0h682.667c37.703 0 68.267-30.564 68.267-68.267v0-887.467c0-37.703-30.564-68.267-68.267-68.267v0zM514.867 215.552l-30.652 32.017c-3.905 4.182-6.302 9.815-6.302 16.009s2.397 11.826 6.315 16.022l-0.013-0.014 128.887 134.69h-589.619c-12.902 0-23.484 7.578-23.484 16.93v34.133c0 9.353 10.581 16.998 23.484 16.998h589.551l-128.819 134.554c-3.905 4.182-6.302 9.815-6.302 16.009s2.397 11.826 6.315 16.022l-0.013-0.014 30.652 32.017c3.831 4.061 9.249 6.59 15.258 6.59s11.427-2.529 15.248-6.58l0.010-0.010 190.123-198.588h15.701v-67.721h-15.633l-190.191-198.656c-3.831-4.061-9.249-6.59-15.258-6.59s-11.427 2.529-15.248 6.58l-0.010 0.010z" />
<glyph unicode="&#xe932;" glyph-name="Register" d="M640.024 234.669c-26.366 4.16-22.655 83.195-22.655 83.195 49.726 47.36 85.922 108.503 102.469 177.297l0.501 2.467c47.549 0 76.795 108.793 29.31 146.679 1.92 40.189 60.988 315.436-237.681 315.436s-239.729-275.183-237.617-315.436c-47.421-38.398-18.239-146.679 29.246-146.679 17.092-71.249 53.28-132.381 102.825-179.628l0.144-0.137s3.84-79.355-22.527-83.195c-85.115-13.439-383.976-146.423-383.976-298.669l511.968 1.664 511.968-1.664c0 152.246-298.989 285.23-383.976 298.669z" />
<glyph unicode="&#xea92;" glyph-name="instagram" d="M512 867.8c136.8 0 153-0.6 206.8-3 50-2.2 77-10.6 95-17.6 23.8-9.2 41-20.4 58.8-38.2 18-18 29-35 38.4-58.8 7-18 15.4-45.2 17.6-95 2.4-54 3-70.2 3-206.8s-0.6-153-3-206.8c-2.2-50-10.6-77-17.6-95-9.2-23.8-20.4-41-38.2-58.8-18-18-35-29-58.8-38.4-18-7-45.2-15.4-95-17.6-54-2.4-70.2-3-206.8-3s-153 0.6-206.8 3c-50 2.2-77 10.6-95 17.6-23.8 9.2-41 20.4-58.8 38.2-18 18-29 35-38.4 58.8-7 18-15.4 45.2-17.6 95-2.4 54-3 70.2-3 206.8s0.6 153 3 206.8c2.2 50 10.6 77 17.6 95 9.2 23.8 20.4 41 38.2 58.8 18 18 35 29 58.8 38.4 18 7 45.2 15.4 95 17.6 53.8 2.4 70 3 206.8 3zM512 960c-139 0-156.4-0.6-211-3-54.4-2.4-91.8-11.2-124.2-23.8-33.8-13.2-62.4-30.6-90.8-59.2-28.6-28.4-46-57-59.2-90.6-12.6-32.6-21.4-69.8-23.8-124.2-2.4-54.8-3-72.2-3-211.2s0.6-156.4 3-211c2.4-54.4 11.2-91.8 23.8-124.2 13.2-33.8 30.6-62.4 59.2-90.8 28.4-28.4 57-46 90.6-59 32.6-12.6 69.8-21.4 124.2-23.8 54.6-2.4 72-3 211-3s156.4 0.6 211 3c54.4 2.4 91.8 11.2 124.2 23.8 33.6 13 62.2 30.6 90.6 59s46 57 59 90.6c12.6 32.6 21.4 69.8 23.8 124.2 2.4 54.6 3 72 3 211s-0.6 156.4-3 211c-2.4 54.4-11.2 91.8-23.8 124.2-12.6 34-30 62.6-58.6 91-28.4 28.4-57 46-90.6 59-32.6 12.6-69.8 21.4-124.2 23.8-54.8 2.6-72.2 3.2-211.2 3.2v0zM512 711c-145.2 0-263-117.8-263-263s117.8-263 263-263 263 117.8 263 263c0 145.2-117.8 263-263 263zM512 277.4c-94.2 0-170.6 76.4-170.6 170.6s76.4 170.6 170.6 170.6c94.2 0 170.6-76.4 170.6-170.6s-76.4-170.6-170.6-170.6zM846.8 721.4c0-33.91-27.49-61.4-61.4-61.4s-61.4 27.49-61.4 61.4c0 33.91 27.49 61.4 61.4 61.4s61.4-27.49 61.4-61.4z" />
<glyph unicode="&#xf014;" glyph-name="trash-o" horiz-adv-x="804" d="M292.572 530.286v-329.142c0-10.286-8-18.286-18.286-18.286h-36.57c-10.286 0-18.286 8-18.286 18.286v329.142c0 10.286 8 18.286 18.286 18.286h36.57c10.286 0 18.286-8 18.286-18.286zM438.858 530.286v-329.142c0-10.286-8-18.286-18.286-18.286h-36.572c-10.286 0-18.286 8-18.286 18.286v329.142c0 10.286 8 18.286 18.286 18.286h36.572c10.286 0 18.286-8 18.286-18.286zM585.144 530.286v-329.142c0-10.286-8-18.286-18.286-18.286h-36.572c-10.286 0-18.286 8-18.286 18.286v329.142c0 10.286 8 18.286 18.286 18.286h36.572c10.286 0 18.286-8 18.286-18.286zM658.286 116.572v541.714h-512v-541.714c0-27.428 15.43-43.428 18.286-43.428h475.43c2.856 0 18.286 16 18.286 43.428zM274.286 731.428h256l-27.428 66.858c-1.714 2.286-6.858 5.714-9.714 6.286h-181.142c-3.428-0.57-8-4-9.714-6.286zM804.572 713.144v-36.57c0-10.286-8-18.286-18.286-18.286h-54.856v-541.714c0-62.856-41.144-116.572-91.428-116.572h-475.428c-50.286 0-91.43 51.428-91.43 114.286v544h-54.856c-10.286 0-18.286 8-18.286 18.286v36.572c0 10.286 8 18.286 18.286 18.286h176.57l40 95.428c11.43 28 45.714 50.856 76 50.856h182.856c30.286 0 64.572-22.856 76-50.856l40-95.428h176.572c10.286 0 18.286-8 18.286-18.286z" />
<glyph unicode="&#xf021;" glyph-name="refresh" horiz-adv-x="878" d="M863.428 347.428c0-1.144 0-2.856-0.572-4-48.572-202.286-215.428-343.428-426.286-343.428-111.43 0-219.43 44-300.572 121.144l-73.714-73.714c-6.856-6.856-16-10.856-25.714-10.856-20 0-36.57 16.572-36.57 36.572v256c0 20 16.572 36.572 36.57 36.572h256c20 0 36.57-16.572 36.57-36.572 0-9.714-4-18.856-10.856-25.714l-78.286-78.286c53.714-50.286 125.142-78.856 198.858-78.856 101.714 0 196 52.572 249.144 139.428 13.714 22.286 20.572 44 30.286 66.856 2.856 8 8.572 13.144 17.144 13.144h109.714c10.286 0 18.286-8.572 18.286-18.286zM877.714 804.572v-256c0-20-16.572-36.57-36.572-36.57h-256c-20 0-36.572 16.572-36.572 36.572 0 9.714 4 18.856 10.856 25.714l78.856 78.858c-54.286 50.286-125.714 78.286-199.428 78.286-101.714 0-196-52.57-249.144-139.428-13.714-22.286-20.57-44-30.286-66.856-2.856-8-8.57-13.144-17.144-13.144h-113.714c-10.286 0-18.286 8.572-18.286 18.286v4c49.144 202.858 217.714 343.428 428.572 343.428 112 0 221.144-44.57 302.286-121.144l74.286 73.714c6.856 6.856 16 10.856 25.714 10.856 20 0 36.572-16.572 36.572-36.572z" />
<glyph unicode="&#xf05e;" glyph-name="ban" horiz-adv-x="878" d="M749.714 440.572c0 62.286-18.286 120-49.714 168.572l-430.858-430.286c49.142-32 107.43-50.856 169.714-50.856 171.428 0 310.856 140 310.856 312.572zM178.856 269.714l431.428 430.856c-49.144 33.144-108 52-171.428 52-171.428 0-310.858-140-310.858-312 0-63.428 18.856-121.714 50.856-170.856zM877.714 440.572c0-243.428-196.572-440.57-438.858-440.57s-438.858 197.144-438.858 440.572c0 242.856 196.57 440 438.858 440s438.858-197.144 438.858-440z" />
<glyph unicode="&#xf222;" glyph-name="mars" horiz-adv-x="878" d="M841.144 877.714c20 0 36.572-16.572 36.572-36.572v-237.714c0-10.286-8-18.286-18.286-18.286h-36.572c-10.286 0-18.286 8-18.286 18.286v149.714l-218.286-218.856c45.144-56 72-127.428 72-205.144 0-181.714-147.428-329.142-329.142-329.142s-329.142 147.428-329.142 329.144 147.43 329.142 329.142 329.142c77.714 0 149.142-26.856 205.142-72l218.286 218.286h-149.144c-10.286 0-18.286 8-18.286 18.286v36.572c0 10.286 8 18.286 18.286 18.286h237.714zM329.142 73.144c141.142 0 256 114.856 256 256s-114.856 256-256 256-256-114.856-256-256 114.856-256 256-256z" />
</font>
</defs>
</svg>
